<svg width="50" height="50" viewBox="0 0 50 50" fill="none" xmlns="http://www.w3.org/2000/svg">
<mask id="path-1-inside-1_1301_350" fill="white">
<path d="M42.5032 38.8876V26.2501C42.4999 26.012 42.4399 25.778 42.3282 25.5676C42.2276 25.4014 42.0771 25.271 41.8982 25.1951C41.7094 25.1198 41.5121 25.0677 41.3107 25.0401C41.0977 25.013 40.883 24.9996 40.6682 25.0001H40.0032V12.7926C40.0816 12.6243 40.1924 12.4226 40.3357 12.1876C40.4791 11.9526 40.6157 11.6926 40.7457 11.4076C40.8757 11.1193 40.9924 10.8526 41.0957 10.6076C41.1844 10.4163 41.2378 10.2105 41.2532 10.0001C41.2169 9.72913 41.1583 9.46156 41.0782 9.20013C40.9626 8.7846 40.8317 8.37348 40.6857 7.96763L40.2357 6.71763C40.1305 6.43478 40.0338 6.14881 39.9457 5.86013C39.8504 5.61204 39.6876 5.39556 39.4757 5.23513C39.2676 5.07895 39.0134 4.99629 38.7532 5.00013H33.7532C33.4862 5.01116 33.2282 5.09978 33.0107 5.25513C32.797 5.40049 32.6385 5.61362 32.5607 5.86013C32.4957 6.05513 32.3916 6.34763 32.2482 6.73763C32.0979 7.15157 31.9554 7.56831 31.8207 7.98763C31.6757 8.42929 31.5449 8.84013 31.4282 9.22013C31.3116 9.5968 31.2532 9.8568 31.2532 10.0001C31.2532 10.1835 31.3057 10.3918 31.4107 10.6251C31.5124 10.8585 31.6357 11.1193 31.7807 11.4076C32.0131 11.8737 32.2539 12.3354 32.5032 12.7926V25.0001H31.8382C31.6049 25.0001 31.3841 25.0135 31.1757 25.0401C30.9711 25.0634 30.7722 25.1227 30.5882 25.2151C30.4159 25.2991 30.2686 25.4267 30.1607 25.5851C30.0475 25.7879 29.9929 26.0181 30.0032 26.2501V38.8876C30.0032 39.7326 30.1724 40.5268 30.5107 41.2701C30.8491 42.0135 31.3049 42.6643 31.8782 43.2226C33.048 44.3645 34.6186 45.0026 36.2532 45.0001C37.0866 45.0001 37.8807 44.8376 38.6357 44.5126C39.3724 44.1977 40.0471 43.7541 40.6282 43.2026C41.2032 42.6576 41.6591 42.0135 41.9957 41.2701C42.3331 40.5213 42.5062 39.7089 42.5032 38.8876ZM37.5032 25.0001H35.0032V12.5001C35.0028 12.3028 34.9557 12.1083 34.8657 11.9326L33.8507 9.90263L34.6507 7.50013H37.8557L38.6557 9.90013L37.6407 11.9326C37.5507 12.1083 37.5036 12.3028 37.5032 12.5001V25.0001ZM32.5032 30.0001V27.5001H40.0032V30.0001H32.5032ZM40.0032 32.5001V38.7501C40.0166 39.2451 39.9191 39.7268 39.7107 40.1951C39.5143 40.6463 39.2363 41.0573 38.8907 41.4076C38.19 42.1053 37.2421 42.4979 36.2532 42.5001C35.7555 42.5146 35.2611 42.4145 34.8082 42.2076C34.126 41.9227 33.5432 41.4425 33.133 40.8273C32.7229 40.2122 32.5038 39.4895 32.5032 38.7501V32.5001H40.0032ZM15.0032 6.35513C15.0035 6.15018 14.9534 5.94831 14.8573 5.76729C14.7612 5.58627 14.6221 5.43166 14.4522 5.31706C14.2823 5.20247 14.0868 5.13141 13.8829 5.11015C13.6791 5.08888 13.4731 5.11807 13.2832 5.19513C11.2728 6.00831 9.5401 7.38515 8.29377 9.15996C7.04744 10.9348 6.34054 13.0319 6.25813 15.1991C6.17572 17.3662 6.72132 19.511 7.82927 21.3753C8.93723 23.2397 10.5603 24.7441 12.5032 25.7076V40.0001C12.5032 41.3262 13.03 42.598 13.9677 43.5357C14.9054 44.4733 16.1772 45.0001 17.5032 45.0001C18.8293 45.0001 20.1011 44.4733 21.0388 43.5357C21.9765 42.598 22.5032 41.3262 22.5032 40.0001V25.7101C24.4471 24.7474 26.0711 23.2432 27.1797 21.3787C28.2884 19.5143 28.8344 17.369 28.752 15.2014C28.6695 13.0338 27.9622 10.9363 26.7152 9.16139C25.4681 7.38651 23.7346 6.00999 21.7232 5.19763C21.5333 5.12057 21.3274 5.09138 21.1236 5.11265C20.9197 5.13391 20.7242 5.20497 20.5543 5.31956C20.3844 5.43416 20.2453 5.58877 20.1492 5.76979C20.0531 5.95081 20.003 6.15268 20.0032 6.35763V15.0001C20.0032 15.6632 19.7398 16.2991 19.271 16.7679C18.8022 17.2367 18.1663 17.5001 17.5032 17.5001C16.8402 17.5001 16.2043 17.2367 15.7355 16.7679C15.2666 16.2991 15.0032 15.6632 15.0032 15.0001V6.35513ZM8.75324 15.6301C8.75324 12.6551 10.2357 10.0301 12.5032 8.44513V14.9951C12.5032 16.3212 13.03 17.593 13.9677 18.5307C14.9054 19.4683 16.1772 19.9951 17.5032 19.9951C18.8293 19.9951 20.1011 19.4683 21.0388 18.5307C21.9765 17.593 22.5032 16.3212 22.5032 14.9951V8.44513C23.7975 9.3462 24.8243 10.5802 25.4751 12.0168C26.1258 13.4534 26.3763 15.039 26.2001 16.6062C26.0239 18.1734 25.4275 19.6639 24.474 20.9201C23.5205 22.1763 22.2453 23.1515 20.7832 23.7426C20.5529 23.8361 20.3556 23.9962 20.2166 24.2024C20.0777 24.4086 20.0034 24.6515 20.0032 24.9001V40.0001C20.0032 40.6632 19.7398 41.2991 19.271 41.7679C18.8022 42.2367 18.1663 42.5001 17.5032 42.5001C16.8402 42.5001 16.2043 42.2367 15.7355 41.7679C15.2666 41.2991 15.0032 40.6632 15.0032 40.0001V24.9001C15.0031 24.6515 14.9288 24.4086 14.7898 24.2024C14.6509 23.9962 14.4536 23.8361 14.2232 23.7426C12.6063 23.0888 11.2216 21.9667 10.247 20.5203C9.2723 19.0739 8.75214 17.3693 8.75324 15.6251"/>
</mask>
<path d="M42.5032 38.8876H40.5032L40.5033 38.8948L42.5032 38.8876ZM42.5032 26.2501H44.5032V26.2362L44.503 26.2223L42.5032 26.2501ZM42.3282 25.5676L44.0947 24.6298L44.0683 24.5801L44.0392 24.5319L42.3282 25.5676ZM41.8982 25.1951L42.6794 23.354L42.6596 23.3456L42.6397 23.3376L41.8982 25.1951ZM41.3107 25.0401L41.5822 23.0586L41.5727 23.0573L41.5633 23.0561L41.3107 25.0401ZM40.6682 25.0001V27.0001L40.6727 27.0001L40.6682 25.0001ZM40.0032 25.0001H38.0032V27.0001H40.0032V25.0001ZM40.0032 12.7926L38.19 11.9488L38.0032 12.3501V12.7926H40.0032ZM40.7457 11.4076L42.5654 12.2376L42.569 12.2297L40.7457 11.4076ZM41.0957 10.6076L39.2811 9.7667L39.2665 9.7983L39.2529 9.83039L41.0957 10.6076ZM41.2532 10.0001L43.2479 10.1468L43.2631 9.93983L43.2355 9.73417L41.2532 10.0001ZM41.0782 9.20013L39.1514 9.73617L39.1584 9.76122L39.166 9.78609L41.0782 9.20013ZM40.6857 7.96763L42.5677 7.29073L42.5675 7.29019L40.6857 7.96763ZM40.2357 6.71763L42.1175 6.04019L42.1139 6.03008L42.1101 6.02002L40.2357 6.71763ZM39.9457 5.86013L41.8588 5.27685L41.8381 5.20902L41.8127 5.14281L39.9457 5.86013ZM39.4757 5.23513L40.683 3.64061L40.676 3.63535L39.4757 5.23513ZM38.7532 5.00013V7.00013H38.768L38.7827 6.99991L38.7532 5.00013ZM33.7532 5.00013V3.00013H33.7119L33.6706 3.00183L33.7532 5.00013ZM33.0107 5.25513L34.1355 6.90888L34.1546 6.89591L34.1733 6.88251L33.0107 5.25513ZM32.5607 5.86013L34.4581 6.49258L34.4632 6.47718L34.4681 6.4617L32.5607 5.86013ZM32.2482 6.73763L30.371 6.0477L30.3684 6.05483L32.2482 6.73763ZM31.8207 7.98763L33.721 8.61149L33.725 8.599L31.8207 7.98763ZM31.4282 9.22013L33.3387 9.81186L33.3402 9.80712L31.4282 9.22013ZM31.4107 10.6251L33.2443 9.82624L33.2395 9.81529L33.2346 9.8044L31.4107 10.6251ZM31.7807 11.4076L33.5707 10.5153L33.5675 10.5091L31.7807 11.4076ZM32.5032 12.7926H34.5032V12.2828L34.2592 11.8352L32.5032 12.7926ZM32.5032 25.0001V27.0001H34.5032V25.0001H32.5032ZM31.1757 25.0401L31.4022 27.0273L31.4159 27.0257L31.4297 27.0239L31.1757 25.0401ZM30.5882 25.2151L31.4645 27.013L31.4753 27.0077L31.4861 27.0023L30.5882 25.2151ZM30.1607 25.5851L28.5072 24.46L28.4577 24.5329L28.4147 24.6098L30.1607 25.5851ZM30.0032 26.2501H32.0032V26.2058L32.0013 26.1615L30.0032 26.2501ZM31.8782 43.2226L33.2753 41.7914L33.2736 41.7898L31.8782 43.2226ZM36.2532 45.0001V43.0001L36.2503 43.0001L36.2532 45.0001ZM38.6357 44.5126L37.8495 42.6737L37.845 42.6756L38.6357 44.5126ZM40.6282 43.2026L39.2524 41.7511L39.2516 41.7518L40.6282 43.2026ZM41.9957 41.2701L43.8176 42.0953L43.8192 42.0917L41.9957 41.2701ZM37.5032 25.0001V27.0001H39.5032V25.0001H37.5032ZM35.0032 25.0001H33.0032V27.0001H35.0032V25.0001ZM35.0032 12.5001H37.0032L37.0032 12.4962L35.0032 12.5001ZM34.8657 11.9326L33.0769 12.8271L33.0813 12.8358L33.0857 12.8446L34.8657 11.9326ZM33.8507 9.90263L31.9532 9.27076L31.6916 10.0564L32.0619 10.7971L33.8507 9.90263ZM34.6507 7.50013V5.50013H33.2087L32.7532 6.86826L34.6507 7.50013ZM37.8557 7.50013L39.7531 6.86767L39.2973 5.50013H37.8557V7.50013ZM38.6557 9.90013L40.445 10.7937L40.8149 10.053L40.5531 9.26767L38.6557 9.90013ZM37.6407 11.9326L39.4207 12.8446L39.4254 12.8354L39.43 12.8262L37.6407 11.9326ZM37.5032 12.5001L35.5032 12.4962V12.5001H37.5032ZM32.5032 30.0001H30.5032V32.0001H32.5032V30.0001ZM32.5032 27.5001V25.5001H30.5032V27.5001H32.5032ZM40.0032 27.5001H42.0032V25.5001H40.0032V27.5001ZM40.0032 30.0001V32.0001H42.0032V30.0001H40.0032ZM40.0032 32.5001H42.0032V30.5001H40.0032V32.5001ZM40.0032 38.7501H38.0032V38.7771L38.004 38.804L40.0032 38.7501ZM39.7107 40.1951L37.8834 39.3822L37.8802 39.3895L37.877 39.3968L39.7107 40.1951ZM38.8907 41.4076L40.3018 42.825L40.3082 42.8186L40.3145 42.8123L38.8907 41.4076ZM36.2532 42.5001L36.2488 40.5001L36.2219 40.5002L36.1951 40.501L36.2532 42.5001ZM34.8082 42.2076L35.6393 40.3885L35.6093 40.3748L35.5789 40.3621L34.8082 42.2076ZM32.5032 38.7501H30.5032L30.5032 38.7517L32.5032 38.7501ZM32.5032 32.5001V30.5001H30.5032V32.5001H32.5032ZM15.0032 6.35513L13.0032 6.35237V6.35513H15.0032ZM13.2832 5.19513L14.0332 7.04921L14.0352 7.04837L13.2832 5.19513ZM12.5032 25.7076H14.5032V24.467L13.3918 23.9159L12.5032 25.7076ZM12.5032 40.0001H10.5032H12.5032ZM22.5032 25.7101L21.6156 23.9179L20.5032 24.4688V25.7101H22.5032ZM21.7232 5.19763L20.9712 7.05087L20.9742 7.05208L21.7232 5.19763ZM20.0032 6.35763H22.0032L22.0032 6.35487L20.0032 6.35763ZM12.5032 8.44513H14.5032V4.60694L11.3574 6.8059L12.5032 8.44513ZM12.5032 14.9951H10.5032H12.5032ZM17.5032 19.9951V21.9951V19.9951ZM22.5032 8.44513L23.646 6.80373L20.5032 4.6158V8.44513H22.5032ZM20.7832 23.7426L20.0335 21.8885L20.0312 21.8894L20.7832 23.7426ZM20.0032 24.9001L18.0032 24.8989V24.9001H20.0032ZM15.0032 24.9001H17.0032L17.0032 24.8989L15.0032 24.9001ZM14.2232 23.7426L14.9752 21.8894L14.973 21.8885L14.2232 23.7426ZM44.5032 38.8876V26.2501H40.5032V38.8876H44.5032ZM44.503 26.2223C44.4953 25.6666 44.3553 25.1207 44.0947 24.6298L40.5618 26.5055C40.5245 26.4354 40.5045 26.3574 40.5034 26.278L44.503 26.2223ZM44.0392 24.5319C43.7209 24.0062 43.2452 23.5941 42.6794 23.354L41.117 27.0362C40.9091 26.948 40.7343 26.7966 40.6173 26.6033L44.0392 24.5319ZM42.6397 23.3376C42.2998 23.202 41.9447 23.1083 41.5822 23.0586L41.0393 27.0216C41.0796 27.0271 41.119 27.0376 41.1568 27.0526L42.6397 23.3376ZM41.5633 23.0561C41.2649 23.0182 40.9645 22.9995 40.6638 23.0001L40.6727 27.0001C40.8016 26.9998 40.9304 27.0079 41.0582 27.0241L41.5633 23.0561ZM40.6682 23.0001H40.0032V27.0001H40.6682V23.0001ZM42.0032 25.0001V12.7926H38.0032V25.0001H42.0032ZM41.8165 13.6364C41.8522 13.5597 41.9222 13.4275 42.0432 13.2291L38.6283 11.1462C38.4626 11.4178 38.3109 11.6888 38.19 11.9488L41.8165 13.6364ZM42.0432 13.2291C42.2333 12.9174 42.4067 12.5856 42.5654 12.2376L38.9261 10.5776C38.8248 10.7997 38.7248 10.9879 38.6283 11.1462L42.0432 13.2291ZM42.569 12.2297C42.7045 11.9292 42.8278 11.6474 42.9385 11.3849L39.2529 9.83039C39.157 10.0579 39.047 10.3094 38.9225 10.5856L42.569 12.2297ZM42.9104 11.4486C43.1004 11.0385 43.2147 10.5975 43.2479 10.1468L39.2586 9.85348C39.2608 9.82344 39.2685 9.79404 39.2811 9.7667L42.9104 11.4486ZM43.2355 9.73417C43.1846 9.35477 43.1026 8.98018 42.9905 8.61417L39.166 9.78609C39.2141 9.94294 39.2492 10.1035 39.271 10.2661L43.2355 9.73417ZM43.0051 8.66409C42.8763 8.20107 42.7304 7.74297 42.5677 7.29073L38.8038 8.64453C38.9331 9.004 39.049 9.36813 39.1514 9.73617L43.0051 8.66409ZM42.5675 7.29019L42.1175 6.04019L38.354 7.39507L38.804 8.64507L42.5675 7.29019ZM42.1101 6.02002C42.0189 5.77488 41.9351 5.52704 41.8588 5.27685L38.0327 6.4434C38.1324 6.77058 38.242 7.09468 38.3613 7.41524L42.1101 6.02002ZM41.8127 5.14281C41.5836 4.54653 41.1923 4.02621 40.683 3.64062L38.2684 6.82963C38.183 6.7649 38.1173 6.67755 38.0788 6.57744L41.8127 5.14281ZM40.676 3.63535C40.1135 3.21332 39.4269 2.98997 38.7237 3.00035L38.7827 6.99991C38.6 7.00261 38.4216 6.94457 38.2754 6.83491L40.676 3.63535ZM38.7532 3.00013H33.7532V7.00013H38.7532V3.00013ZM33.6706 3.00183C33.0152 3.02892 32.3819 3.24643 31.8481 3.62774L34.1733 6.88251C34.0745 6.95313 33.9572 6.99341 33.8358 6.99842L33.6706 3.00183ZM31.886 3.60138C31.3005 3.99955 30.8663 4.58333 30.6534 5.25855L34.4681 6.4617C34.4107 6.64391 34.2935 6.80143 34.1355 6.90888L31.886 3.60138ZM30.6634 5.22767C30.6084 5.39259 30.5129 5.66169 30.371 6.0477L34.1255 7.42755C34.2703 7.03356 34.3831 6.71766 34.4581 6.49258L30.6634 5.22767ZM30.3684 6.05483C30.2095 6.49243 30.0588 6.93298 29.9165 7.37626L33.725 8.599C33.8519 8.20363 33.9863 7.81071 34.1281 7.42042L30.3684 6.05483ZM29.9205 7.36378C29.7722 7.8157 29.6373 8.23896 29.5163 8.63314L33.3402 9.80712C33.4525 9.4413 33.5793 9.04288 33.721 8.61147L29.9205 7.36378ZM29.5178 8.62839C29.4111 8.97285 29.2532 9.51044 29.2532 10.0001H33.2532C33.2532 10.0485 33.2508 10.086 33.2489 10.1094C33.2468 10.1334 33.2446 10.1497 33.2436 10.157C33.2417 10.1701 33.2419 10.1646 33.2485 10.1355C33.2619 10.0754 33.2894 9.97102 33.3387 9.81186L29.5178 8.62839ZM29.2532 10.0001C29.2532 10.5551 29.4087 11.0499 29.5869 11.4459L33.2346 9.8044C33.2214 9.77521 33.2247 9.77639 33.232 9.80516C33.2393 9.83419 33.2532 9.90168 33.2532 10.0001H29.2532ZM29.5772 11.424C29.6968 11.6985 29.8366 11.9933 29.994 12.3062L33.5675 10.5091C33.4349 10.2453 33.328 10.0184 33.2443 9.82624L29.5772 11.424ZM29.9908 12.2999C30.2341 12.7879 30.4863 13.2714 30.7473 13.7501L34.2592 11.8352C34.0216 11.3995 33.7921 10.9595 33.5707 10.5154L29.9908 12.2999ZM30.5032 12.7926V25.0001H34.5032V12.7926H30.5032ZM32.5032 23.0001H31.8382V27.0001H32.5032V23.0001ZM31.8382 23.0001C31.5292 23.0001 31.223 23.0178 30.9218 23.0563L31.4297 27.0239C31.5451 27.0092 31.6806 27.0001 31.8382 27.0001V23.0001ZM30.9493 23.053C30.5109 23.1029 30.0847 23.2299 29.6904 23.428L31.4861 27.0023C31.4598 27.0155 31.4314 27.0239 31.4022 27.0273L30.9493 23.053ZM29.712 23.4173C29.2264 23.654 28.8111 24.0134 28.5072 24.46L31.8143 26.7102C31.726 26.8399 31.6055 26.9443 31.4645 27.013L29.712 23.4173ZM28.4147 24.6098C28.1202 25.1369 27.9784 25.7356 28.0052 26.3388L32.0013 26.1615C32.0074 26.3007 31.9747 26.4389 31.9068 26.5605L28.4147 24.6098ZM28.0032 26.2501V38.8876H32.0032V26.2501H28.0032ZM28.0032 38.8876C28.0032 40.0083 28.2295 41.0861 28.6904 42.0987L32.3311 40.4416C32.1153 39.9675 32.0032 39.4569 32.0032 38.8876H28.0032ZM28.6904 42.0987C29.1295 43.0633 29.7279 43.9202 30.4829 44.6555L33.2736 41.7898C32.8819 41.4084 32.5686 40.9636 32.3311 40.4416L28.6904 42.0987ZM30.4812 44.6538C32.0253 46.1611 34.0985 47.0033 36.2562 47.0001L36.2503 43.0001C35.1387 43.0018 34.0707 42.5679 33.2753 41.7914L30.4812 44.6538ZM36.2532 47.0001C37.3546 47.0001 38.4182 46.7837 39.4265 46.3497L37.845 42.6756C37.3433 42.8916 36.8185 43.0001 36.2532 43.0001V47.0001ZM39.422 46.3516C40.3769 45.9433 41.2515 45.3683 42.0049 44.6534L39.2516 41.7518C38.8426 42.1399 38.3678 42.452 37.8495 42.6737L39.422 46.3516ZM42.0041 44.6542C42.7725 43.9258 43.3774 43.0671 43.8176 42.0953L40.1739 40.445C39.9407 40.9598 39.6339 41.3894 39.2524 41.7511L42.0041 44.6542ZM43.8192 42.0917C44.2739 41.0824 44.5072 39.9875 44.5032 38.8805L40.5033 38.8948C40.5052 39.4304 40.3923 39.9602 40.1723 40.4486L43.8192 42.0917ZM37.5032 23.0001H35.0032V27.0001H37.5032V23.0001ZM37.0032 25.0001V12.5001H33.0032V25.0001H37.0032ZM37.0032 12.4962C37.0022 11.983 36.8797 11.4774 36.6457 11.0207L33.0857 12.8446C33.0317 12.7392 33.0035 12.6225 33.0032 12.5041L37.0032 12.4962ZM36.6546 11.0382L35.6396 9.0082L32.0619 10.7971L33.0769 12.8271L36.6546 11.0382ZM35.7483 10.5345L36.5483 8.13199L32.7532 6.86826L31.9532 9.27076L35.7483 10.5345ZM34.6507 9.50013H37.8557V5.50013H34.6507V9.50013ZM35.9584 8.13258L36.7584 10.5326L40.5531 9.26767L39.7531 6.86767L35.9584 8.13258ZM36.8664 9.00658L35.8514 11.0391L39.43 12.8262L40.445 10.7937L36.8664 9.00658ZM35.8607 11.0207C35.6268 11.4774 35.5042 11.983 35.5032 12.4962L39.5032 12.5041C39.503 12.6225 39.4747 12.7392 39.4207 12.8446L35.8607 11.0207ZM35.5032 12.5001V25.0001H39.5032V12.5001H35.5032ZM34.5032 30.0001V27.5001H30.5032V30.0001H34.5032ZM32.5032 29.5001H40.0032V25.5001H32.5032V29.5001ZM38.0032 27.5001V30.0001H42.0032V27.5001H38.0032ZM40.0032 28.0001H32.5032V32.0001H40.0032V28.0001ZM38.0032 32.5001V38.7501H42.0032V32.5001H38.0032ZM38.004 38.804C38.009 38.9903 37.9749 39.1765 37.8834 39.3822L41.5381 41.008C41.8633 40.2771 42.0242 39.5 42.0025 38.6963L38.004 38.804ZM37.877 39.3968C37.7788 39.6223 37.6398 39.8279 37.467 40.003L40.3145 42.8123C40.8329 42.2868 41.2498 41.6702 41.5445 40.9935L37.877 39.3968ZM37.4796 39.9903C37.1526 40.3159 36.7103 40.4991 36.2488 40.5001L36.2577 44.5001C37.7739 44.4968 39.2274 43.8947 40.3018 42.825L37.4796 39.9903ZM36.1951 40.501C36.0037 40.5065 35.8135 40.4681 35.6393 40.3885L33.9772 44.0268C34.7088 44.361 35.5074 44.5227 36.3114 44.4993L36.1951 40.501ZM35.5789 40.3621C35.2605 40.2291 34.9885 40.005 34.7971 39.7179L31.4689 41.9367C32.0978 42.88 32.9914 43.6163 34.0376 44.0532L35.5789 40.3621ZM34.7971 39.7179C34.6058 39.4309 34.5035 39.0936 34.5032 38.7486L30.5032 38.7517C30.5041 39.8854 30.8401 40.9935 31.4689 41.9367L34.7971 39.7179ZM34.5032 38.7501V32.5001H30.5032V38.7501H34.5032ZM32.5032 34.5001H40.0032V30.5001H32.5032V34.5001ZM17.0032 6.35789C17.004 5.82503 16.8737 5.30016 16.6238 4.82951L13.0908 6.70507C13.0331 6.59646 13.0031 6.47533 13.0032 6.35237L17.0032 6.35789ZM16.6238 4.82951C16.374 4.35886 16.0122 3.95686 15.5705 3.65892L13.3339 6.97521C13.2319 6.90645 13.1485 6.81368 13.0908 6.70507L16.6238 4.82951ZM15.5705 3.65892C15.1287 3.36097 14.6204 3.17622 14.0904 3.12094L13.6754 7.09935C13.5531 7.0866 13.4358 7.04396 13.3339 6.97521L15.5705 3.65892ZM14.0904 3.12094C13.5604 3.06566 13.025 3.14153 12.5312 3.34189L14.0352 7.04837C13.9213 7.0946 13.7977 7.11211 13.6754 7.09935L14.0904 3.12094ZM12.5333 3.34105C10.1655 4.29877 8.12488 5.92032 6.65703 8.01058L9.93052 10.3093C10.9553 8.84998 12.38 7.71786 14.0332 7.04921L12.5333 3.34105ZM6.65703 8.01058C5.18917 10.1008 4.35663 12.5708 4.25957 15.1231L8.25668 15.2751C8.32444 13.4931 8.9057 11.7687 9.93052 10.3093L6.65703 8.01058ZM4.25957 15.1231C4.16252 17.6754 4.80509 20.2014 6.10997 22.3971L9.54858 20.3536C8.63755 18.8206 8.18892 17.057 8.25668 15.2751L4.25957 15.1231ZM6.10997 22.3971C7.41485 24.5928 9.32643 26.3646 11.6147 27.4994L13.3918 23.9159C11.7942 23.1236 10.4596 21.8865 9.54858 20.3536L6.10997 22.3971ZM10.5032 25.7076V40.0001H14.5032V25.7076H10.5032ZM10.5032 40.0001C10.5032 41.8566 11.2407 43.6371 12.5535 44.9499L15.3819 42.1215C14.8193 41.5588 14.5032 40.7958 14.5032 40.0001H10.5032ZM12.5535 44.9499C13.8662 46.2626 15.6467 47.0001 17.5032 47.0001V43.0001C16.7076 43.0001 15.9445 42.6841 15.3819 42.1215L12.5535 44.9499ZM17.5032 47.0001C19.3598 47.0001 21.1402 46.2626 22.453 44.9499L19.6246 42.1215C19.0619 42.6841 18.2989 43.0001 17.5032 43.0001V47.0001ZM22.453 44.9499C23.7657 43.6371 24.5032 41.8566 24.5032 40.0001H20.5032C20.5032 40.7958 20.1872 41.5588 19.6246 42.1215L22.453 44.9499ZM24.5032 40.0001V25.7101H20.5032V40.0001H24.5032ZM23.3909 27.5023C25.6803 26.3684 27.593 24.5968 28.8988 22.4009L25.4607 20.3565C24.5491 21.8895 23.2138 23.1263 21.6156 23.9179L23.3909 27.5023ZM28.8988 22.4009C30.2045 20.205 30.8476 17.6784 30.7505 15.1254L26.7534 15.2774C26.8212 17.0597 26.3722 18.8235 25.4607 20.3565L28.8988 22.4009ZM30.7505 15.1254C30.6534 12.5725 29.8204 10.102 28.3516 8.01161L25.0787 10.3112C26.104 11.7705 26.6856 13.4952 26.7534 15.2774L30.7505 15.1254ZM28.3516 8.01161C26.8829 5.92119 24.8411 4.29996 22.4722 3.34318L20.9742 7.05208C22.628 7.72002 24.0534 8.85182 25.0787 10.3112L28.3516 8.01161ZM22.4752 3.34439C21.9815 3.14403 21.446 3.06816 20.9161 3.12344L21.3311 7.10185C21.2087 7.11461 21.0852 7.0971 20.9712 7.05087L22.4752 3.34439ZM20.9161 3.12344C20.3861 3.17872 19.8778 3.36347 19.436 3.66142L21.6726 6.97771C21.5706 7.04646 21.4534 7.0891 21.3311 7.10185L20.9161 3.12344ZM19.436 3.66142C18.9942 3.95936 18.6325 4.36136 18.3827 4.83201L21.9157 6.70757C21.858 6.81618 21.7745 6.90895 21.6726 6.97771L19.436 3.66142ZM18.3827 4.83201C18.1328 5.30267 18.0025 5.82754 18.0032 6.36039L22.0032 6.35487C22.0034 6.47783 21.9733 6.59895 21.9157 6.70757L18.3827 4.83201ZM18.0032 6.35763V15.0001H22.0032V6.35763H18.0032ZM18.0032 15.0001C18.0032 15.1327 17.9506 15.2599 17.8568 15.3537L20.6852 18.1821C21.5291 17.3382 22.0032 16.1936 22.0032 15.0001H18.0032ZM17.8568 15.3537C17.763 15.4475 17.6358 15.5001 17.5032 15.5001V19.5001C18.6967 19.5001 19.8413 19.026 20.6852 18.1821L17.8568 15.3537ZM17.5032 15.5001C17.3706 15.5001 17.2435 15.4475 17.1497 15.3537L14.3213 18.1821C15.1652 19.026 16.3098 19.5001 17.5032 19.5001V15.5001ZM17.1497 15.3537C17.0559 15.2599 17.0032 15.1327 17.0032 15.0001H13.0032C13.0032 16.1936 13.4773 17.3382 14.3213 18.1821L17.1497 15.3537ZM17.0032 15.0001V6.35513H13.0032V15.0001H17.0032ZM10.7532 15.6301C10.7532 13.3369 11.8929 11.3119 13.6491 10.0844L11.3574 6.8059C8.57857 8.74833 6.75324 11.9733 6.75324 15.6301H10.7532ZM10.5032 8.44513V14.9951H14.5032V8.44513H10.5032ZM10.5032 14.9951C10.5032 16.8516 11.2407 18.6321 12.5535 19.9449L15.3819 17.1164C14.8193 16.5538 14.5032 15.7908 14.5032 14.9951H10.5032ZM12.5535 19.9449C13.8662 21.2576 15.6467 21.9951 17.5032 21.9951V17.9951C16.7076 17.9951 15.9445 17.6791 15.3819 17.1164L12.5535 19.9449ZM17.5032 21.9951C19.3598 21.9951 21.1402 21.2576 22.453 19.9449L19.6246 17.1164C19.0619 17.6791 18.2989 17.9951 17.5032 17.9951V21.9951ZM22.453 19.9449C23.7657 18.6321 24.5032 16.8516 24.5032 14.9951H20.5032C20.5032 15.7908 20.1872 16.5538 19.6246 17.1164L22.453 19.9449ZM24.5032 14.9951V8.44513H20.5032V14.9951H24.5032ZM21.3605 10.0865C22.3591 10.7817 23.1512 11.7338 23.6533 12.842L27.2969 11.1916C26.4974 9.42674 25.236 7.91071 23.646 6.80373L21.3605 10.0865ZM23.6533 12.842C24.1553 13.9503 24.3486 15.1737 24.2126 16.3828L28.1876 16.8297C28.404 14.9044 28.0963 12.9564 27.2969 11.1916L23.6533 12.842ZM24.2126 16.3828C24.0767 17.5919 23.6166 18.7417 22.881 19.7109L26.0671 22.1293C27.2384 20.5861 27.9711 18.755 28.1876 16.8297L24.2126 16.3828ZM22.881 19.7109C22.1453 20.68 21.1615 21.4324 20.0335 21.8885L21.5329 25.5968C23.3291 24.8706 24.8957 23.6725 26.0671 22.1293L22.881 19.7109ZM20.0312 21.8894C19.4322 22.1325 18.9193 22.5486 18.5581 23.0847L21.8752 25.32C21.7918 25.4437 21.6735 25.5398 21.5352 25.5959L20.0312 21.8894ZM18.5581 23.0847C18.1968 23.6208 18.0036 24.2524 18.0032 24.8989L22.0032 24.9014C22.0031 25.0505 21.9586 25.1963 21.8752 25.32L18.5581 23.0847ZM18.0032 24.9001V40.0001H22.0032V24.9001H18.0032ZM18.0032 40.0001C18.0032 40.1327 17.9506 40.2599 17.8568 40.3537L20.6852 43.1821C21.5291 42.3382 22.0032 41.1936 22.0032 40.0001H18.0032ZM17.8568 40.3537C17.763 40.4475 17.6359 40.5001 17.5032 40.5001V44.5001C18.6967 44.5001 19.8413 44.026 20.6852 43.1821L17.8568 40.3537ZM17.5032 40.5001C17.3706 40.5001 17.2435 40.4475 17.1497 40.3537L14.3213 43.1821C15.1652 44.026 16.3098 44.5001 17.5032 44.5001V40.5001ZM17.1497 40.3537C17.0559 40.2599 17.0032 40.1327 17.0032 40.0001H13.0032C13.0032 41.1936 13.4773 42.3382 14.3213 43.1821L17.1497 40.3537ZM17.0032 40.0001V24.9001H13.0032V40.0001H17.0032ZM17.0032 24.8989C17.0028 24.2524 16.8097 23.6208 16.4484 23.0847L13.1313 25.32C13.0479 25.1963 13.0033 25.0505 13.0032 24.9014L17.0032 24.8989ZM16.4484 23.0847C16.0872 22.5486 15.5743 22.1325 14.9752 21.8894L13.4712 25.5959C13.333 25.5398 13.2146 25.4437 13.1313 25.32L16.4484 23.0847ZM14.973 21.8885C13.7256 21.3841 12.6574 20.5185 11.9055 19.4027L8.58838 21.638C9.78581 23.415 11.487 24.7936 13.4735 25.5968L14.973 21.8885ZM11.9055 19.4027C11.1537 18.2869 10.7524 16.9719 10.7532 15.6264L6.75324 15.6239C6.75189 17.7667 7.39094 19.861 8.58838 21.638L11.9055 19.4027Z" fill="white" mask="url(#path-1-inside-1_1301_350)"/>
</svg>
