<svg width="59" height="59" viewBox="0 0 59 59" fill="none" xmlns="http://www.w3.org/2000/svg">
<path d="M14.7487 36.875H19.6654V41.7917H14.7487M14.7487 27.0417H19.6654V31.9583H14.7487M9.83203 46.7083H29.4987V41.7917H24.582V36.875H29.4987V31.9583H24.582V27.0417H29.4987V22.125H9.83203M34.4154 17.2083H39.332V12.2917H34.4154M34.4154 27.0417H39.332V22.125H34.4154M34.4154 36.875H39.332V31.9583H34.4154M34.4154 46.7083H39.332V41.7917H34.4154M44.2487 17.2083H49.1654V12.2917H44.2487M44.2487 27.0417H49.1654V22.125H44.2487M44.2487 36.875H49.1654V31.9583H44.2487M44.2487 46.7083H49.1654V41.7917H44.2487M29.4987 17.2083V7.375H54.082V51.625H4.91537V17.2083H29.4987Z" fill="#C99146"/>
</svg>
