<svg width="50" height="51" viewBox="0 0 50 51" fill="none" xmlns="http://www.w3.org/2000/svg">
<path d="M22.9167 14.7264H39.5833C40.1359 14.7264 40.6658 14.9459 41.0565 15.3366C41.4472 15.7273 41.6667 16.2572 41.6667 16.8097V31.3931C41.6667 31.9556 41.4437 32.4681 41.0792 32.8431M33.3333 33.4764H10.4167C9.86413 33.4764 9.33423 33.2569 8.94353 32.8662C8.55283 32.4755 8.33333 31.9456 8.33333 31.3931V16.8097C8.33333 16.2572 8.55283 15.7273 8.94353 15.3366C9.33423 14.9459 9.86413 14.7264 10.4167 14.7264H14.5833M14.5833 33.4764V41.8097M15.625 33.4764L24.4667 24.6347M28.6354 20.466L34.375 14.7264M28.125 33.4764L30.7271 30.8743M34.8771 26.7243L41.6667 19.9347M8.33333 28.2681L18.2333 18.3681M35.4167 35.5597V41.8097M10.4167 41.8097H18.75M31.25 41.8097H39.5833M35.4167 14.7264V10.5597M6.25 6.39307L43.75 43.8931" stroke="white" stroke-width="2" stroke-linecap="round" stroke-linejoin="round"/>
</svg>
