<svg width="19" height="19" viewBox="0 0 19 19" fill="none" xmlns="http://www.w3.org/2000/svg">
<path d="M10.0584 15.4742C9.97533 15.3915 9.90945 15.2931 9.8645 15.1849C9.81955 15.0766 9.79641 14.9606 9.79641 14.8433C9.79641 14.7261 9.81955 14.6101 9.8645 14.5018C9.90945 14.3935 9.97533 14.2952 10.0584 14.2125L13.8799 10.391H2.96973C2.73352 10.391 2.50699 10.2971 2.33996 10.1301C2.17294 9.96308 2.0791 9.73654 2.0791 9.50033C2.0791 9.26413 2.17294 9.03759 2.33996 8.87057C2.50699 8.70354 2.73352 8.60971 2.96973 8.60971H13.8799L10.0584 4.7867C9.89105 4.61939 9.79705 4.39246 9.79705 4.15584C9.79705 3.91922 9.89105 3.6923 10.0584 3.52498C10.2257 3.35767 10.4526 3.26367 10.6892 3.26367C10.9258 3.26367 11.1528 3.35767 11.3201 3.52498L16.6638 8.86873C16.7469 8.95147 16.8127 9.04979 16.8577 9.15805C16.9026 9.26631 16.9258 9.38237 16.9258 9.49959C16.9258 9.61681 16.9026 9.73288 16.8577 9.84113C16.8127 9.94939 16.7469 10.0477 16.6638 10.1305L11.3201 15.4742C11.2373 15.5572 11.139 15.6231 11.0308 15.6681C10.9225 15.713 10.8064 15.7362 10.6892 15.7362C10.572 15.7362 10.4559 15.713 10.3477 15.6681C10.2394 15.6231 10.1411 15.5572 10.0584 15.4742Z" fill="#C99146"/>
</svg>
