<svg width="30" height="29" viewBox="0 0 30 29" fill="none" xmlns="http://www.w3.org/2000/svg">
<path d="M16.4496 2.5C17.7893 2.50357 18.4693 2.51072 19.0564 2.52739L19.2874 2.53573C19.5541 2.54525 19.8173 2.55716 20.1353 2.57145C21.4023 2.63099 22.2669 2.83105 23.0254 3.12519C23.8114 3.42766 24.4735 3.83731 25.1356 4.49822C25.7413 5.09332 26.2099 5.81347 26.5086 6.60838C26.8027 7.36694 27.0028 8.23149 27.0623 9.49973C27.0766 9.81649 27.0885 10.0797 27.0981 10.3476L27.1052 10.5786C27.1231 11.1645 27.1302 11.8445 27.1326 13.1842L27.1338 14.0725V15.6325C27.1367 16.5011 27.1276 17.3697 27.1064 18.2381L27.0993 18.4691C27.0897 18.737 27.0778 19.0002 27.0635 19.317C27.004 20.5852 26.8016 21.4486 26.5086 22.2083C26.2099 23.0032 25.7413 23.7234 25.1356 24.3185C24.5405 24.9243 23.8203 25.3928 23.0254 25.6915C22.2669 25.9857 21.4023 26.1857 20.1353 26.2453L19.2874 26.281L19.0564 26.2881C18.4693 26.3048 17.7893 26.3131 16.4496 26.3155L15.5613 26.3167H14.0025C13.1335 26.3198 12.2645 26.3106 11.3957 26.2893L11.1647 26.2822C10.882 26.2715 10.5994 26.2592 10.3168 26.2453C9.04977 26.1857 8.18522 25.9857 7.42547 25.6915C6.63098 25.3927 5.91125 24.9241 5.3165 24.3185C4.7103 23.7235 4.2413 23.0033 3.94227 22.2083C3.64814 21.4498 3.44808 20.5852 3.38853 19.317L3.35281 18.4691L3.34685 18.2381C3.3249 17.3697 3.31498 16.5011 3.31708 15.6325V13.1842C3.31379 12.3156 3.32252 11.447 3.34328 10.5786L3.35162 10.3476C3.36114 10.0797 3.37305 9.81649 3.38734 9.49973C3.44688 8.23149 3.64695 7.36813 3.94108 6.60838C4.24081 5.81314 4.71063 5.09297 5.31769 4.49822C5.9121 3.89274 6.6314 3.42418 7.42547 3.12519C8.18522 2.83105 9.04858 2.63099 10.3168 2.57145C10.6336 2.55716 10.8979 2.54525 11.1647 2.53573L11.3957 2.52858C12.2641 2.50742 13.1327 2.49829 14.0013 2.50119L16.4496 2.5ZM15.2254 8.45418C13.6463 8.45418 12.1318 9.08149 11.0152 10.1981C9.89858 11.3147 9.27126 12.8292 9.27126 14.4084C9.27126 15.9875 9.89858 17.502 11.0152 18.6186C12.1318 19.7352 13.6463 20.3625 15.2254 20.3625C16.8046 20.3625 18.3191 19.7352 19.4357 18.6186C20.5523 17.502 21.1796 15.9875 21.1796 14.4084C21.1796 12.8292 20.5523 11.3147 19.4357 10.1981C18.3191 9.08149 16.8046 8.45418 15.2254 8.45418ZM15.2254 10.8358C15.6946 10.8358 16.1592 10.9281 16.5926 11.1076C17.0261 11.287 17.42 11.5501 17.7518 11.8818C18.0836 12.2135 18.3468 12.6073 18.5264 13.0407C18.706 13.4741 18.7985 13.9386 18.7985 14.4078C18.7986 14.8769 18.7063 15.3415 18.5268 15.7749C18.3474 16.2084 18.0843 16.6023 17.7526 16.9341C17.4209 17.2659 17.0271 17.5291 16.5937 17.7087C16.1603 17.8883 15.6958 17.9808 15.2266 17.9809C14.2791 17.9809 13.3705 17.6045 12.7005 16.9345C12.0305 16.2645 11.6541 15.3558 11.6541 14.4084C11.6541 13.4609 12.0305 12.5522 12.7005 11.8822C13.3705 11.2122 14.2791 10.8358 15.2266 10.8358M21.4785 6.66792C21.0837 6.66792 20.7051 6.82475 20.426 7.10391C20.1468 7.38306 19.99 7.76168 19.99 8.15647C19.99 8.55125 20.1468 8.92987 20.426 9.20903C20.7051 9.48818 21.0837 9.64501 21.4785 9.64501C21.8733 9.64501 22.2519 9.48818 22.5311 9.20903C22.8102 8.92987 22.9671 8.55125 22.9671 8.15647C22.9671 7.76168 22.8102 7.38306 22.5311 7.10391C22.2519 6.82475 21.8733 6.66792 21.4785 6.66792Z" fill="#C99146"/>
</svg>
