<svg width="29" height="29" viewBox="0 0 29 29" fill="none" xmlns="http://www.w3.org/2000/svg">
<path d="M22.9909 3.69043C23.6225 3.69043 24.2283 3.94135 24.675 4.388C25.1216 4.83465 25.3725 5.44044 25.3725 6.0721V22.7438C25.3725 23.3755 25.1216 23.9812 24.675 24.4279C24.2283 24.8745 23.6225 25.1255 22.9909 25.1255H6.31917C5.68751 25.1255 5.08173 24.8745 4.63508 24.4279C4.18843 23.9812 3.9375 23.3755 3.9375 22.7438V6.0721C3.9375 5.44044 4.18843 4.83465 4.63508 4.388C5.08173 3.94135 5.68751 3.69043 6.31917 3.69043H22.9909ZM22.3955 22.1484V15.837C22.3955 14.8073 21.9864 13.8199 21.2584 13.0919C20.5304 12.3638 19.5429 11.9548 18.5133 11.9548C17.5011 11.9548 16.3222 12.5741 15.7506 13.5029V12.1811H12.4282V22.1484H15.7506V16.2776C15.7506 15.3606 16.4889 14.6104 17.4059 14.6104C17.848 14.6104 18.2721 14.786 18.5847 15.0987C18.8974 15.4113 19.073 15.8354 19.073 16.2776V22.1484H22.3955ZM8.55794 10.3115C9.08854 10.3115 9.5974 10.1007 9.97258 9.72551C10.3478 9.35033 10.5585 8.84146 10.5585 8.31087C10.5585 7.20339 9.66542 6.29836 8.55794 6.29836C8.02419 6.29836 7.5123 6.51039 7.13488 6.88781C6.75746 7.26523 6.54543 7.77712 6.54543 8.31087C6.54543 9.41835 7.45047 10.3115 8.55794 10.3115ZM10.2132 22.1484V12.1811H6.91459V22.1484H10.2132Z" fill="#C99146"/>
</svg>
