<svg width="60" height="59" viewBox="0 0 60 59" fill="none" xmlns="http://www.w3.org/2000/svg">
<g clip-path="url(#clip0_749_367)">
<path d="M30.1802 0.196289V18.093C30.1802 22.3294 26.0234 25.763 20.9315 25.763H11.655C9.20121 25.7609 6.84878 24.9519 5.11458 23.5138C3.38037 22.0756 2.40625 20.1258 2.40625 18.093V0.196289M11.6642 15.5363V0.196289M20.9222 15.5363V0.196289M11.6642 25.763V52.6182C11.6642 54.73 13.7195 56.443 16.2932 56.443C18.8484 56.443 20.9222 54.7044 20.9222 52.6182V25.763M39.4382 43.6596V52.608C39.4392 53.1116 39.5599 53.6101 39.7935 54.0751C40.027 54.54 40.3689 54.9623 40.7994 55.3178C41.23 55.6734 41.7408 55.9551 42.3028 56.1471C42.8648 56.339 43.467 56.4374 44.0749 56.4366C44.6828 56.4357 45.2845 56.3357 45.8457 56.1422C46.4069 55.9487 46.9167 55.6655 47.3458 55.3088C47.7749 54.9521 48.115 54.5289 48.3467 54.0632C48.5784 53.5976 48.6972 53.0988 48.6961 52.5952V35.9896C48.6961 35.9896 57.9541 35.9896 57.9541 28.3196V15.5363C57.9541 7.86629 51.7821 2.75296 39.4382 2.75296V43.6596Z" stroke="#C99146" stroke-width="3.5"/>
</g>
<defs>
<clipPath id="clip0_749_367">
<rect width="59" height="59" fill="white" transform="translate(0.679688)"/>
</clipPath>
</defs>
</svg>
