<svg width="22" height="22" viewBox="0 0 22 22" fill="none" xmlns="http://www.w3.org/2000/svg">
<path d="M11.6459 17.9168C11.5498 17.821 11.4735 17.7072 11.4214 17.5818C11.3694 17.4565 11.3426 17.3221 11.3426 17.1864C11.3426 17.0506 11.3694 16.9162 11.4214 16.7909C11.4735 16.6655 11.5498 16.5517 11.6459 16.4559L16.0708 12.031L3.43801 12.031C3.16451 12.031 2.90221 11.9223 2.70881 11.7289C2.51542 11.5355 2.40676 11.2732 2.40676 10.9997C2.40676 10.7262 2.51542 10.4639 2.70881 10.2705C2.90221 10.0771 3.16451 9.96847 3.43801 9.96847H16.0708L11.6459 5.54183C11.4522 5.3481 11.3433 5.08534 11.3433 4.81136C11.3433 4.53738 11.4522 4.27462 11.6459 4.08089C11.8396 3.88716 12.1024 3.77832 12.3764 3.77832C12.6504 3.77832 12.9131 3.88716 13.1068 4.08089L19.2943 10.2684C19.3905 10.3642 19.4668 10.478 19.5188 10.6034C19.5709 10.7287 19.5977 10.8631 19.5977 10.9989C19.5977 11.1346 19.5709 11.269 19.5188 11.3943C19.4668 11.5197 19.3905 11.6335 19.2943 11.7293L13.1068 17.9168C13.011 18.013 12.8972 18.0892 12.7718 18.1413C12.6465 18.1933 12.5121 18.2201 12.3764 18.2201C12.2406 18.2201 12.1063 18.1933 11.9809 18.1413C11.8556 18.0892 11.7417 18.013 11.6459 17.9168Z" fill="#4B2B00"/>
</svg>
