<svg width="19" height="19" viewBox="0 0 19 19" fill="none" xmlns="http://www.w3.org/2000/svg">
<path d="M9.63258 14.689C9.54955 14.6063 9.48367 14.508 9.43872 14.3997C9.39377 14.2915 9.37063 14.1754 9.37063 14.0582C9.37063 13.941 9.39377 13.8249 9.43872 13.7166C9.48367 13.6084 9.54955 13.5101 9.63258 13.4273L13.4541 9.6058H2.54395C2.30774 9.6058 2.08121 9.51197 1.91418 9.34494C1.74716 9.17792 1.65332 8.95139 1.65332 8.71518C1.65332 8.47897 1.74716 8.25244 1.91418 8.08541C2.08121 7.91839 2.30774 7.82455 2.54395 7.82455L13.4541 7.82455L9.63258 4.00154C9.46527 3.83423 9.37127 3.6073 9.37127 3.37069C9.37127 3.13407 9.46527 2.90714 9.63258 2.73983C9.79989 2.57251 10.0268 2.47852 10.2634 2.47852C10.5001 2.47852 10.727 2.57251 10.8943 2.73983L16.238 8.08358C16.3211 8.16632 16.387 8.26464 16.4319 8.37289C16.4769 8.48115 16.5 8.59722 16.5 8.71444C16.5 8.83165 16.4769 8.94772 16.4319 9.05598C16.387 9.16423 16.3211 9.26255 16.238 9.3453L10.8943 14.689C10.8116 14.7721 10.7132 14.838 10.605 14.8829C10.4967 14.9279 10.3807 14.951 10.2634 14.951C10.1462 14.951 10.0302 14.9279 9.9219 14.8829C9.81364 14.838 9.71532 14.7721 9.63258 14.689Z" fill="#4B2B00"/>
</svg>
