<svg width="50" height="50" viewBox="0 0 50 50" fill="none" xmlns="http://www.w3.org/2000/svg">
<path d="M13.9679 39.2863L16.2053 41.2919L15.616 38.3455C15.5909 38.2198 15.5833 38.1309 15.5833 38.0729V37.6042C15.5833 36.6215 15.7668 35.7146 16.1275 34.8731C16.4902 34.0268 17.022 33.2471 17.7352 32.5331L22.9167 27.4434L28.0981 32.5331C28.8113 33.2471 29.3432 34.0268 29.7059 34.8731C30.0665 35.7146 30.25 36.6215 30.25 37.6042V38.0729C30.25 38.1309 30.2425 38.2199 30.2173 38.3455L29.6275 41.2947L31.8658 39.2859C33.3204 37.9805 34.4463 36.4536 35.2342 34.7097C36.0231 32.9637 36.4167 31.1126 36.4167 29.1667C36.4167 27.304 36.0718 25.5323 35.3778 23.8604C34.6843 22.1898 33.6801 20.7004 32.373 19.3963L31.8001 18.8247L31.1217 19.2657C30.5047 19.6667 29.863 19.9641 29.195 20.1621C28.5242 20.3609 27.8392 20.4596 27.1372 20.4583H27.1354C25.2265 20.4583 23.6 19.8359 22.2071 18.5802C20.8055 17.3167 20.011 15.7846 19.7953 13.946L19.5782 12.0958L18.1561 13.2991C16.7635 14.4775 15.5253 15.7061 14.4444 16.986C13.3663 18.2624 12.4525 19.5641 11.7072 20.8917C10.959 22.2244 10.3889 23.5919 10.0008 24.9936C9.61308 26.3943 9.41667 27.7861 9.41667 29.1667C9.41667 31.1114 9.81032 32.9623 10.599 34.7094C11.3869 36.4548 12.5129 37.982 13.9679 39.2863ZM23.6175 31.1617L22.9167 30.4731L22.2158 31.1617L19.2471 34.0783L19.2471 34.0783L19.2408 34.0846C18.7709 34.5545 18.4029 35.0943 18.1434 35.6998C17.8825 36.3084 17.75 36.9458 17.75 37.6042C17.75 38.9922 18.2717 40.2021 19.2732 41.1831C20.2764 42.1659 21.5093 42.6667 22.9167 42.6667C24.324 42.6667 25.5566 42.1658 26.5587 41.1825C27.558 40.202 28.0799 38.9932 28.0833 37.6067V37.6042C28.0833 36.9205 27.9544 36.2687 27.6844 35.6621C27.4238 35.0765 27.0569 34.5506 26.5938 34.0858L26.5939 34.0858L26.5862 34.0783L23.6175 31.1617ZM43.7547 21.9167H43.75C43.4121 21.9167 43.1767 21.8132 42.975 21.6108L42.2667 22.3167L42.975 21.6108C42.7713 21.4064 42.6675 21.1686 42.6667 20.831C42.6659 20.497 42.7681 20.262 42.9726 20.0583C43.179 19.8526 43.4163 19.75 43.75 19.75C44.0838 19.75 44.3225 19.8527 44.5308 20.0595C44.7349 20.2623 44.8357 20.495 44.8334 20.8263C44.8309 21.1677 44.7255 21.4096 44.5213 21.6166C44.3253 21.8154 44.0941 21.9183 43.7547 21.9167ZM29.3154 17.8029C30.0028 17.4716 30.5935 16.9809 31.0907 16.3572L31.4757 15.8867C33.5492 17.2136 35.2135 18.9721 36.4762 21.1745C37.8809 23.6244 38.5833 26.2823 38.5833 29.1667C38.5833 33.5598 37.0702 37.2448 34.0325 40.2825C30.9948 43.3202 27.3098 44.8333 22.9167 44.8333C18.5235 44.8333 14.8386 43.3202 11.8009 40.2825C8.76315 37.2448 7.25 33.5598 7.25 29.1667C7.25 24.9288 8.66543 20.8811 11.5559 17.0039C14.1672 13.5012 17.6136 10.4832 21.9167 7.95816V13.125C21.9167 14.5645 22.4263 15.815 23.4425 16.8087C24.4527 17.7965 25.7043 18.2917 27.1354 18.2917C27.9038 18.2917 28.635 18.1308 29.3154 17.8029ZM42.6667 15.6667V7.25H44.8333V15.6667H42.6667Z" stroke="white" stroke-width="2"/>
</svg>
