<svg width="140" height="45" viewBox="0 0 140 45" fill="none" xmlns="http://www.w3.org/2000/svg">
<path d="M0 0H140L109.032 22L140 45H0V0Z" fill="#FFC700"/>
<path d="M14.679 28V17.0909H21.4439V18.5078H16.3249V21.8317H20.9592V23.2433H16.3249V28H14.679ZM26.2659 28.1651C25.4598 28.1651 24.7655 27.9929 24.1831 27.6484C23.6043 27.3004 23.1569 26.8121 22.8408 26.1836C22.5283 25.5515 22.3721 24.8111 22.3721 23.9624C22.3721 23.1243 22.5283 22.3857 22.8408 21.7464C23.1569 21.1072 23.5972 20.6083 24.1618 20.2496C24.73 19.891 25.3941 19.7116 26.154 19.7116C26.6157 19.7116 27.0631 19.788 27.4964 19.9407C27.9296 20.0934 28.3184 20.3331 28.6629 20.6598C29.0074 20.9865 29.279 21.4109 29.4779 21.9329C29.6768 22.4513 29.7762 23.0817 29.7762 23.8239V24.3885H23.2723V23.1953H28.2155C28.2155 22.7763 28.1302 22.4052 27.9598 22.082C27.7893 21.7553 27.5496 21.4979 27.2407 21.3097C26.9353 21.1214 26.5766 21.0273 26.1647 21.0273C25.7172 21.0273 25.3266 21.1374 24.9928 21.3576C24.6626 21.5742 24.4069 21.8583 24.2258 22.2099C24.0482 22.5579 23.9594 22.9361 23.9594 23.3445V24.2766C23.9594 24.8235 24.0553 25.2887 24.2471 25.6722C24.4424 26.0558 24.714 26.3487 25.0621 26.5511C25.4101 26.75 25.8167 26.8494 26.2819 26.8494C26.5837 26.8494 26.8589 26.8068 27.1075 26.7216C27.3561 26.6328 27.5709 26.5014 27.752 26.3274C27.9332 26.1534 28.0716 25.9386 28.1675 25.6829L29.675 25.9545C29.5542 26.3984 29.3376 26.7873 29.0251 27.1211C28.7162 27.4513 28.3273 27.7088 27.8586 27.8935C27.3934 28.0746 26.8625 28.1651 26.2659 28.1651ZM33.9244 28.1811C33.4059 28.1811 32.9371 28.0852 32.5181 27.8935C32.0991 27.6982 31.767 27.4158 31.522 27.0465C31.2805 26.6772 31.1598 26.2244 31.1598 25.6882C31.1598 25.2266 31.2486 24.8466 31.4261 24.5483C31.6037 24.25 31.8434 24.0138 32.1452 23.8398C32.4471 23.6658 32.7844 23.5344 33.1573 23.4457C33.5302 23.3569 33.9102 23.2894 34.2972 23.2433C34.7873 23.1864 35.185 23.1403 35.4904 23.1048C35.7958 23.0657 36.0178 23.0036 36.1562 22.9183C36.2947 22.8331 36.364 22.6946 36.364 22.5028V22.4656C36.364 22.0004 36.2326 21.6399 35.9698 21.3842C35.7106 21.1286 35.3235 21.0007 34.8086 21.0007C34.2724 21.0007 33.8498 21.1197 33.5408 21.3576C33.2354 21.592 33.0241 21.853 32.907 22.1406L31.4102 21.7997C31.5877 21.3026 31.8469 20.9013 32.1879 20.5959C32.5323 20.2869 32.9283 20.0632 33.3757 19.9247C33.8232 19.7827 34.2937 19.7116 34.7873 19.7116C35.114 19.7116 35.4602 19.7507 35.826 19.8288C36.1953 19.9034 36.5398 20.0419 36.8594 20.2443C37.1825 20.4467 37.4471 20.7362 37.6531 21.1126C37.859 21.4854 37.962 21.9702 37.962 22.5668V28H36.4066V26.8814H36.3427C36.2397 27.0874 36.0852 27.2898 35.8793 27.4886C35.6733 27.6875 35.4087 27.8526 35.0856 27.984C34.7624 28.1154 34.3754 28.1811 33.9244 28.1811ZM34.2706 26.9027C34.7109 26.9027 35.0874 26.8157 35.3999 26.6417C35.7159 26.4677 35.9556 26.2404 36.119 25.9599C36.2859 25.6758 36.3693 25.3722 36.3693 25.049V23.9943C36.3125 24.0511 36.2024 24.1044 36.0391 24.1541C35.8793 24.2003 35.6964 24.2411 35.4904 24.2766C35.2844 24.3086 35.0838 24.3388 34.8885 24.3672C34.6932 24.392 34.5298 24.4134 34.3984 24.4311C34.0895 24.4702 33.8072 24.5359 33.5515 24.6282C33.2994 24.7205 33.0969 24.8537 32.9442 25.0277C32.7951 25.1982 32.7205 25.4254 32.7205 25.7095C32.7205 26.1037 32.8661 26.402 33.1573 26.6044C33.4485 26.8033 33.8196 26.9027 34.2706 26.9027ZM43.9026 19.8182V21.0966H39.4335V19.8182H43.9026ZM40.632 17.858H42.2247V25.5977C42.2247 25.9066 42.2709 26.1392 42.3632 26.2955C42.4555 26.4482 42.5745 26.5529 42.7201 26.6097C42.8692 26.663 43.0308 26.6896 43.2048 26.6896C43.3327 26.6896 43.4445 26.6808 43.5404 26.663C43.6363 26.6452 43.7108 26.631 43.7641 26.6204L44.0518 27.9361C43.9594 27.9716 43.828 28.0071 43.6576 28.0426C43.4871 28.0817 43.2741 28.103 43.0184 28.1065C42.5993 28.1136 42.2087 28.0391 41.8465 27.8828C41.4843 27.7266 41.1913 27.4851 40.9676 27.1584C40.7439 26.8317 40.632 26.4215 40.632 25.9279V17.858ZM50.8473 24.6069V19.8182H52.4453V28H50.8793V26.5831H50.794C50.6058 27.0199 50.304 27.3839 49.8885 27.6751C49.4766 27.9627 48.9634 28.1065 48.3491 28.1065C47.8235 28.1065 47.3583 27.9911 46.9535 27.7603C46.5522 27.5259 46.2362 27.1797 46.0053 26.7216C45.7781 26.2635 45.6644 25.6971 45.6644 25.0224V19.8182H47.2571V24.8306C47.2571 25.3881 47.4116 25.832 47.7205 26.1623C48.0295 26.4925 48.4308 26.6577 48.9244 26.6577C49.2227 26.6577 49.5192 26.5831 49.8139 26.4339C50.1122 26.2848 50.359 26.0593 50.5543 25.7575C50.7532 25.4556 50.8509 25.0721 50.8473 24.6069ZM54.5853 28V19.8182H56.1247V21.1179H56.21C56.3591 20.6776 56.6219 20.3313 56.9983 20.0792C57.3783 19.8235 57.808 19.6957 58.2874 19.6957C58.3868 19.6957 58.504 19.6992 58.6389 19.7063C58.7774 19.7134 58.8857 19.7223 58.9639 19.733V21.2564C58.8999 21.2386 58.7863 21.2191 58.623 21.1978C58.4596 21.1729 58.2963 21.1605 58.1329 21.1605C57.7565 21.1605 57.4209 21.2404 57.1262 21.4002C56.835 21.5565 56.6041 21.7749 56.4337 22.0554C56.2632 22.3324 56.178 22.6484 56.178 23.0036V28H54.5853ZM63.5755 28.1651C62.7694 28.1651 62.0751 27.9929 61.4927 27.6484C60.9139 27.3004 60.4664 26.8121 60.1504 26.1836C59.8379 25.5515 59.6816 24.8111 59.6816 23.9624C59.6816 23.1243 59.8379 22.3857 60.1504 21.7464C60.4664 21.1072 60.9068 20.6083 61.4714 20.2496C62.0396 19.891 62.7037 19.7116 63.4636 19.7116C63.9252 19.7116 64.3727 19.788 64.8059 19.9407C65.2392 20.0934 65.628 20.3331 65.9725 20.6598C66.3169 20.9865 66.5886 21.4109 66.7875 21.9329C66.9863 22.4513 67.0858 23.0817 67.0858 23.8239V24.3885H60.5819V23.1953H65.525C65.525 22.7763 65.4398 22.4052 65.2694 22.082C65.0989 21.7553 64.8592 21.4979 64.5502 21.3097C64.2449 21.1214 63.8862 21.0273 63.4743 21.0273C63.0268 21.0273 62.6362 21.1374 62.3024 21.3576C61.9721 21.5742 61.7164 21.8583 61.5353 22.2099C61.3578 22.5579 61.269 22.9361 61.269 23.3445V24.2766C61.269 24.8235 61.3649 25.2887 61.5566 25.6722C61.752 26.0558 62.0236 26.3487 62.3716 26.5511C62.7196 26.75 63.1262 26.8494 63.5914 26.8494C63.8933 26.8494 64.1685 26.8068 64.4171 26.7216C64.6657 26.6328 64.8805 26.5014 65.0616 26.3274C65.2427 26.1534 65.3812 25.9386 65.4771 25.6829L66.9846 25.9545C66.8638 26.3984 66.6472 26.7873 66.3347 27.1211C66.0257 27.4513 65.6369 27.7088 65.1681 27.8935C64.7029 28.0746 64.1721 28.1651 63.5755 28.1651ZM71.9157 28.1598C71.2552 28.1598 70.6657 27.9911 70.1473 27.6538C69.6324 27.3129 69.2275 26.8281 68.9328 26.1996C68.6416 25.5675 68.496 24.8093 68.496 23.9251C68.496 23.0408 68.6434 22.2844 68.9381 21.6559C69.2364 21.0273 69.6448 20.5462 70.1633 20.2124C70.6817 19.8786 71.2694 19.7116 71.9264 19.7116C72.4342 19.7116 72.8426 19.7969 73.1515 19.9673C73.464 20.1342 73.7055 20.3295 73.876 20.5533C74.05 20.777 74.1849 20.9741 74.2808 21.1445H74.3767V17.0909H75.9694V28H74.414V26.7269H74.2808C74.1849 26.9009 74.0464 27.0998 73.8653 27.3235C73.6878 27.5472 73.4427 27.7425 73.1302 27.9094C72.8177 28.0763 72.4129 28.1598 71.9157 28.1598ZM72.2673 26.8015C72.7254 26.8015 73.1125 26.6808 73.4285 26.4393C73.7481 26.1942 73.9896 25.8551 74.153 25.4219C74.3199 24.9886 74.4033 24.4844 74.4033 23.9091C74.4033 23.3409 74.3216 22.8437 74.1583 22.4176C73.9949 21.9915 73.7552 21.6594 73.4392 21.4215C73.1231 21.1836 72.7325 21.0646 72.2673 21.0646C71.7879 21.0646 71.3884 21.1889 71.0688 21.4375C70.7492 21.6861 70.5077 22.0252 70.3444 22.4549C70.1846 22.8846 70.1047 23.3693 70.1047 23.9091C70.1047 24.456 70.1863 24.9478 70.3497 25.3846C70.5131 25.8214 70.7545 26.1676 71.0741 26.4233C71.3973 26.6754 71.795 26.8015 72.2673 26.8015Z" fill="black"/>
</svg>
