<svg width="38" height="38" viewBox="0 0 38 38" fill="none" xmlns="http://www.w3.org/2000/svg">
<path d="M25.0206 24.1586C24.8605 24.1588 24.7019 24.1276 24.5539 24.0666C24.4059 24.0057 24.2714 23.9162 24.1582 23.8033C24.045 23.6904 23.9552 23.5564 23.8941 23.4088C23.8329 23.2613 23.8016 23.1032 23.8018 22.9436L23.8018 15.5836L13.263 26.0897C13.0349 26.3171 12.7254 26.4449 12.4027 26.4449C12.0801 26.4449 11.7706 26.3171 11.5424 26.0897C11.3143 25.8622 11.1861 25.5537 11.1861 25.232C11.1861 24.9104 11.3143 24.6019 11.5424 24.3744L22.0812 13.8683L14.6969 13.8668C14.3737 13.8668 14.0637 13.7388 13.8351 13.511C13.6065 13.2831 13.4781 12.9741 13.4781 12.6518C13.4781 12.3296 13.6065 12.0206 13.8351 11.7927C14.0637 11.5649 14.3737 11.4369 14.6969 11.4369L25.0206 11.4369C25.1807 11.4366 25.3394 11.4678 25.4874 11.5288C25.6353 11.5897 25.7698 11.6792 25.883 11.7921C25.9963 11.905 26.086 12.039 26.1472 12.1866C26.2083 12.3341 26.2397 12.4922 26.2394 12.6518L26.2394 22.9436C26.2397 23.1032 26.2083 23.2613 26.1472 23.4088C26.086 23.5564 25.9963 23.6904 25.883 23.8033C25.7698 23.9162 25.6353 24.0057 25.4874 24.0666C25.3394 24.1276 25.1808 24.1588 25.0206 24.1586Z" fill="#C99146"/>
</svg>
