<svg width="50" height="50" viewBox="0 0 50 50" fill="none" xmlns="http://www.w3.org/2000/svg">
<path d="M42.75 18.7502V19.7502H43.75C46.6352 19.7502 49 22.1149 49 25.0002V35.4168C49 38.302 46.6352 40.6668 43.75 40.6668H42.75V41.6668V44.8335H40.5833V41.6668V40.6668H39.5833H10.4167H9.41667V41.6668V44.8335H7.25V41.6668V40.6668H6.25C3.36478 40.6668 1 38.302 1 35.4168V25.0002C1 22.1149 3.36478 19.7502 6.25 19.7502H7.25V18.7502V14.5835C7.25 11.6983 9.61479 9.3335 12.5 9.3335H20.8333C22.1718 9.3335 23.395 9.85403 24.3287 10.6997L25 11.3077L25.6713 10.6997C26.605 9.85403 27.8282 9.3335 29.1667 9.3335H37.5C40.3852 9.3335 42.75 11.6983 42.75 14.5835V18.7502ZM40.253 21.1179L40.5833 20.82V20.3752V14.5835C40.5833 12.8854 39.1981 11.5002 37.5 11.5002H29.1667C27.4685 11.5002 26.0833 12.8854 26.0833 14.5835V29.1668V30.1668H27.0833H37.5H38.5V29.1668V25.0002C38.5 23.4702 39.1769 22.088 40.253 21.1179ZM22.9167 30.1668H23.9167V29.1668V14.5835C23.9167 12.8854 22.5315 11.5002 20.8333 11.5002H12.5C10.8019 11.5002 9.41667 12.8854 9.41667 14.5835V20.3752V20.82L9.74703 21.1179C10.8231 22.088 11.5 23.4702 11.5 25.0002V29.1668V30.1668H12.5H22.9167ZM43.75 38.5002C45.4481 38.5002 46.8333 37.1149 46.8333 35.4168V25.0002C46.8333 23.302 45.4481 21.9168 43.75 21.9168C42.0519 21.9168 40.6667 23.302 40.6667 25.0002V32.3335H9.33333V25.0002C9.33333 23.302 7.94812 21.9168 6.25 21.9168C4.55188 21.9168 3.16667 23.302 3.16667 25.0002V35.4168C3.16667 37.1149 4.55188 38.5002 6.25 38.5002H43.75Z" stroke="white" stroke-width="2"/>
</svg>
