<svg width="50" height="50" viewBox="0 0 50 50" fill="none" xmlns="http://www.w3.org/2000/svg">
<mask id="path-1-inside-1_1301_339" fill="white">
<path d="M23.3132 22.0469H26.463V20.472H23.9364L21.826 11.6075C21.7854 11.4345 21.6875 11.2804 21.5482 11.1701C21.4089 11.0598 21.2365 10.9999 21.0588 11H17.675C17.4973 10.9999 17.3248 11.0598 17.1855 11.1701C17.0463 11.2804 16.9484 11.4345 16.9078 11.6075L14.7951 20.472H12.2617V22.0469H23.3132ZM18.2982 12.5727H20.4333L22.3142 20.4675H16.4173L18.2982 12.5727ZM21.7338 30.7315H16.9978C16.8941 30.7312 16.7915 30.7514 16.6957 30.7908C16.5999 30.8302 16.5128 30.8882 16.4395 30.9614C16.3661 31.0345 16.3079 31.1214 16.2682 31.2171C16.2285 31.3128 16.208 31.4154 16.208 31.519V35.4675C16.2077 35.5713 16.228 35.6741 16.2675 35.7701C16.3071 35.866 16.3653 35.9532 16.4387 36.0266C16.5121 36.1 16.5992 36.1581 16.6952 36.1977C16.7911 36.2373 16.894 36.2575 16.9978 36.2572H21.7338C21.8376 36.2575 21.9404 36.2373 22.0363 36.1977C22.1323 36.1581 22.2194 36.1 22.2928 36.0266C22.3662 35.9532 22.4244 35.866 22.464 35.7701C22.5035 35.6741 22.5238 35.5713 22.5235 35.4675V31.519C22.5235 31.4154 22.503 31.3128 22.4633 31.2171C22.4236 31.1214 22.3654 31.0345 22.292 30.9614C22.2187 30.8882 22.1316 30.8302 22.0358 30.7908C21.94 30.7514 21.8374 30.7312 21.7338 30.7315ZM20.9463 34.6778H17.7875V32.3087H20.9373L20.9463 34.6778ZM11.472 30.7315H13.0514V34.6778H11.472V30.7315ZM36.7338 25.2035H38.3132V29.1498H36.7338V25.2035ZM36.7338 18.1006H38.3132V22.0469H36.7338V18.1006ZM46.208 12.5727H35.1566C35.053 12.5727 34.9504 12.5931 34.8547 12.6328C34.759 12.6725 34.6721 12.7307 34.599 12.8041C34.5258 12.8775 34.4679 12.9645 34.4284 13.0603C34.389 13.1561 34.3688 13.2588 34.3691 13.3624V28.3624H2.78746C2.68386 28.3624 2.58128 28.3828 2.48559 28.4225C2.38991 28.4622 2.303 28.5205 2.22985 28.5938C2.1567 28.6672 2.09874 28.7542 2.0593 28.85C2.01986 28.9458 1.99971 29.0485 2 29.1521V38.6241C1.99971 38.7277 2.01986 38.8304 2.0593 38.9261C2.09874 39.0219 2.1567 39.109 2.22985 39.1824C2.303 39.2557 2.38991 39.3139 2.48559 39.3537C2.58128 39.3934 2.68386 39.4138 2.78746 39.4138H46.2103C46.3141 39.4141 46.4169 39.3939 46.5128 39.3543C46.6088 39.3147 46.696 39.2566 46.7694 39.1832C46.8427 39.1098 46.9009 39.0226 46.9405 38.9267C46.9801 38.8307 47.0003 38.7279 47 38.6241V13.3624C47.0003 13.2584 46.98 13.1554 46.9403 13.0593C46.9006 12.9632 46.8422 12.8759 46.7686 12.8025C46.6949 12.7291 46.6075 12.671 46.5113 12.6315C46.4151 12.5921 46.312 12.5721 46.208 12.5727ZM34.3669 33.0984H24.8926V29.9485H34.3669V33.0984ZM3.57717 29.9485H13.8412V37.8434H3.57717V29.9485ZM15.4183 29.9485H23.3132V33.0984H23.2862V34.6733H23.3132V37.8232H15.4183V29.9485ZM24.8926 34.6733H34.3669V37.8232H24.8926V34.6733ZM45.4183 37.8232H35.944V24.4161H45.4183V37.8232ZM35.944 22.8367V14.1521H45.4183V22.8367H35.944Z"/>
</mask>
<path d="M23.3132 22.0469H26.463V20.472H23.9364L21.826 11.6075C21.7854 11.4345 21.6875 11.2804 21.5482 11.1701C21.4089 11.0598 21.2365 10.9999 21.0588 11H17.675C17.4973 10.9999 17.3248 11.0598 17.1855 11.1701C17.0463 11.2804 16.9484 11.4345 16.9078 11.6075L14.7951 20.472H12.2617V22.0469H23.3132ZM18.2982 12.5727H20.4333L22.3142 20.4675H16.4173L18.2982 12.5727ZM21.7338 30.7315H16.9978C16.8941 30.7312 16.7915 30.7514 16.6957 30.7908C16.5999 30.8302 16.5128 30.8882 16.4395 30.9614C16.3661 31.0345 16.3079 31.1214 16.2682 31.2171C16.2285 31.3128 16.208 31.4154 16.208 31.519V35.4675C16.2077 35.5713 16.228 35.6741 16.2675 35.7701C16.3071 35.866 16.3653 35.9532 16.4387 36.0266C16.5121 36.1 16.5992 36.1581 16.6952 36.1977C16.7911 36.2373 16.894 36.2575 16.9978 36.2572H21.7338C21.8376 36.2575 21.9404 36.2373 22.0363 36.1977C22.1323 36.1581 22.2194 36.1 22.2928 36.0266C22.3662 35.9532 22.4244 35.866 22.464 35.7701C22.5035 35.6741 22.5238 35.5713 22.5235 35.4675V31.519C22.5235 31.4154 22.503 31.3128 22.4633 31.2171C22.4236 31.1214 22.3654 31.0345 22.292 30.9614C22.2187 30.8882 22.1316 30.8302 22.0358 30.7908C21.94 30.7514 21.8374 30.7312 21.7338 30.7315ZM20.9463 34.6778H17.7875V32.3087H20.9373L20.9463 34.6778ZM11.472 30.7315H13.0514V34.6778H11.472V30.7315ZM36.7338 25.2035H38.3132V29.1498H36.7338V25.2035ZM36.7338 18.1006H38.3132V22.0469H36.7338V18.1006ZM46.208 12.5727H35.1566C35.053 12.5727 34.9504 12.5931 34.8547 12.6328C34.759 12.6725 34.6721 12.7307 34.599 12.8041C34.5258 12.8775 34.4679 12.9645 34.4284 13.0603C34.389 13.1561 34.3688 13.2588 34.3691 13.3624V28.3624H2.78746C2.68386 28.3624 2.58128 28.3828 2.48559 28.4225C2.38991 28.4622 2.303 28.5205 2.22985 28.5938C2.1567 28.6672 2.09874 28.7542 2.0593 28.85C2.01986 28.9458 1.99971 29.0485 2 29.1521V38.6241C1.99971 38.7277 2.01986 38.8304 2.0593 38.9261C2.09874 39.0219 2.1567 39.109 2.22985 39.1824C2.303 39.2557 2.38991 39.3139 2.48559 39.3537C2.58128 39.3934 2.68386 39.4138 2.78746 39.4138H46.2103C46.3141 39.4141 46.4169 39.3939 46.5128 39.3543C46.6088 39.3147 46.696 39.2566 46.7694 39.1832C46.8427 39.1098 46.9009 39.0226 46.9405 38.9267C46.9801 38.8307 47.0003 38.7279 47 38.6241V13.3624C47.0003 13.2584 46.98 13.1554 46.9403 13.0593C46.9006 12.9632 46.8422 12.8759 46.7686 12.8025C46.6949 12.7291 46.6075 12.671 46.5113 12.6315C46.4151 12.5921 46.312 12.5721 46.208 12.5727ZM34.3669 33.0984H24.8926V29.9485H34.3669V33.0984ZM3.57717 29.9485H13.8412V37.8434H3.57717V29.9485ZM15.4183 29.9485H23.3132V33.0984H23.2862V34.6733H23.3132V37.8232H15.4183V29.9485ZM24.8926 34.6733H34.3669V37.8232H24.8926V34.6733ZM45.4183 37.8232H35.944V24.4161H45.4183V37.8232ZM35.944 22.8367V14.1521H45.4183V22.8367H35.944Z" stroke="white" stroke-width="4" mask="url(#path-1-inside-1_1301_339)"/>
</svg>
