<svg width="44" height="44" viewBox="0 0 44 44" fill="none" xmlns="http://www.w3.org/2000/svg">
<path d="M21.8773 14.0469H21.875C17.5571 14.0469 14.0469 17.5571 14.0469 21.875C14.0469 26.1929 17.5571 29.7031 21.875 29.7031C26.1929 29.7031 29.7031 26.1929 29.7031 21.875L29.7031 21.8727C29.6984 19.7986 28.8724 17.8108 27.4058 16.3442C25.9392 14.8776 23.9514 14.0516 21.8773 14.0469ZM12.1167 31.6246L12.1167 31.6247L12.121 31.629C12.6367 32.1447 12.6367 33.0115 12.121 33.5273L9.10539 36.5429C8.58967 37.0586 7.72283 37.0586 7.20711 36.5429C6.69138 36.0272 6.69138 35.1603 7.20711 34.6446L10.2227 31.629L10.2227 31.629L10.227 31.6246C10.3506 31.4996 10.4977 31.4003 10.6599 31.3326C10.8221 31.2648 10.9961 31.2299 11.1719 31.2299C11.3476 31.2299 11.5217 31.2648 11.6839 31.3326C11.8461 31.4003 11.9932 31.4996 12.1167 31.6246ZM31.6247 31.6333L31.629 31.629C32.1447 31.1133 33.0115 31.1133 33.5273 31.629L36.5429 34.6446C37.0586 35.1603 37.0586 36.0272 36.5429 36.5429C36.0272 37.0586 35.1603 37.0586 34.6446 36.5429L31.629 33.5273L31.6246 33.523C31.4996 33.3994 31.4003 33.2523 31.3326 33.0901C31.2648 32.9279 31.2299 32.7539 31.2299 32.5781C31.2299 32.4023 31.2648 32.2283 31.3326 32.0661C31.4003 31.9039 31.4996 31.7568 31.6246 31.6333L31.6247 31.6333ZM21.875 8.07812C21.1304 8.07812 20.5312 7.47896 20.5312 6.73437V2.46875C20.5312 1.73545 21.1347 1.125 21.875 1.125C22.6083 1.125 23.2187 1.72849 23.2187 2.46875V6.73437C23.2187 7.47463 22.6083 8.07812 21.875 8.07812ZM21.875 32.375C16.0827 32.375 11.3594 27.6656 11.3594 21.8594C11.3594 19.0705 12.4673 16.3958 14.4393 14.4237C16.4114 12.4516 19.0861 11.3437 21.875 11.3437C24.6639 11.3437 27.3386 12.4516 29.3107 14.4237C31.2827 16.3958 32.3906 19.0705 32.3906 21.8594C32.3906 27.6656 27.6673 32.375 21.875 32.375ZM12.121 12.121C11.6053 12.6367 10.7385 12.6367 10.2227 12.121L7.20711 9.10539C6.69138 8.58967 6.69138 7.72283 7.20711 7.20711C7.72283 6.69138 8.58967 6.69138 9.10539 7.20711L12.121 10.2227C12.6367 10.7385 12.6367 11.6053 12.121 12.121ZM8.07812 21.875C8.07812 22.6196 7.47896 23.2187 6.73437 23.2187H2.46875C1.73545 23.2187 1.125 22.6153 1.125 21.875C1.125 21.1417 1.72849 20.5312 2.46875 20.5312H6.73437C7.47896 20.5312 8.07812 21.1304 8.07812 21.875ZM21.875 35.6562C22.6196 35.6562 23.2187 36.2554 23.2187 37V41.2656C23.2187 41.9989 22.6153 42.6094 21.875 42.6094C21.1417 42.6094 20.5312 42.0059 20.5312 41.2656V37C20.5312 36.2667 21.1347 35.6562 21.875 35.6562ZM35.6562 21.875C35.6562 21.1304 36.2554 20.5312 37 20.5312H41.2656C41.9989 20.5312 42.6094 21.1347 42.6094 21.875C42.6094 22.6083 42.0059 23.2187 41.2656 23.2187H37C36.271 23.2187 35.6562 22.604 35.6562 21.875ZM31.629 12.121C31.1133 11.6053 31.1133 10.7385 31.629 10.2227L34.6446 7.20711C35.1603 6.69138 36.0272 6.69138 36.5429 7.20711C37.0586 7.72283 37.0586 8.58967 36.5429 9.10539L33.5333 12.115C33.5325 12.1159 33.5316 12.1167 33.5307 12.1176C32.9944 12.642 32.1406 12.6326 31.629 12.121Z" stroke="white" stroke-width="2"/>
</svg>
