<svg width="59" height="59" viewBox="0 0 59 59" fill="none" xmlns="http://www.w3.org/2000/svg">
<path d="M50.3945 20.8962H8.60286C7.95087 20.8962 7.32559 21.1552 6.86456 21.6162C6.40353 22.0772 6.14453 22.7025 6.14453 23.3545V47.9378C6.14453 48.5898 6.40353 49.2151 6.86456 49.6761C7.32559 50.1372 7.95087 50.3962 8.60286 50.3962H50.3945C51.0465 50.3962 51.6718 50.1372 52.1328 49.6761C52.5939 49.2151 52.8529 48.5898 52.8529 47.9378V23.3545C52.8529 22.7025 52.5939 22.0772 52.1328 21.6162C51.6718 21.1552 51.0465 20.8962 50.3945 20.8962ZM41.7904 8.60449H17.207V20.8962H41.7904V8.60449Z" stroke="#C99146" stroke-width="3.5" stroke-linejoin="round"/>
<path d="M23.3516 35.6458H35.6432M29.4974 29.5V41.7917" stroke="#C99146" stroke-width="4" stroke-linecap="round"/>
</svg>
