<svg width="59" height="59" viewBox="0 0 59 59" fill="none" xmlns="http://www.w3.org/2000/svg">
<path d="M13.4987 49.167V50.417H14.7487H24.582H25.832V49.167V40.5837H33.1654V49.167V50.417H34.4154H44.2487H45.4987V49.167V9.83366V8.58366H44.2487H14.7487H13.4987V9.83366V49.167ZM14.7487 6.16699H44.2487C45.2212 6.16699 46.1538 6.5533 46.8414 7.24093C47.5291 7.92857 47.9154 8.8612 47.9154 9.83366V52.8337H11.082V9.83366C11.082 8.8612 11.4683 7.92857 12.156 7.24093C12.8436 6.5533 13.7762 6.16699 14.7487 6.16699ZM33.207 16.0003H38.082V20.8753H33.207V16.0003ZM20.9154 28.292H25.7904V33.167H20.9154V28.292ZM33.207 28.292H38.082V33.167H33.207V28.292ZM20.9154 16.0003H25.7904V20.8753H20.9154V16.0003Z" stroke="#C99146" stroke-width="2.5"/>
</svg>
