<svg width="50" height="51" viewBox="0 0 50 51" fill="none" xmlns="http://www.w3.org/2000/svg">
<path d="M1 7.71415C1 4.3267 3.75541 1.57129 7.14286 1.57129H42.8571C46.2446 1.57129 49 4.3267 49 7.71415V43.4284C49 46.8159 46.2446 49.5713 42.8571 49.5713H7.14286C3.75541 49.5713 1 46.8159 1 43.4284V7.71415ZM26.7857 24.5713H22.4286V19.4284H26.7857C28.2089 19.4284 29.3571 20.5767 29.3571 21.9999C29.3571 23.423 28.2089 24.5713 26.7857 24.5713ZM22.4286 33.7141H26.7857C33.2532 33.7141 38.5 28.4673 38.5 21.9999C38.5 15.5324 33.2532 10.2856 26.7857 10.2856H18.75C15.7312 10.2856 13.2857 12.7311 13.2857 15.7499V36.2856C13.2857 38.8133 15.3294 40.857 17.8571 40.857C20.3849 40.857 22.4286 38.8133 22.4286 36.2856V33.7141Z" stroke="white" stroke-width="2"/>
</svg>
