<svg width="60" height="59" viewBox="0 0 60 59" fill="none" xmlns="http://www.w3.org/2000/svg">
<path d="M54.8893 51.625V23.6246C54.8893 20.3747 54.8893 18.7472 54.0437 17.4886C53.198 16.2299 51.7009 15.6252 48.7091 14.4157L33.9591 8.4665C32.1547 7.73883 31.2549 7.375 30.306 7.375C29.3571 7.375 28.4573 7.73883 26.6529 8.4665L11.9029 14.4157C8.91111 15.6252 7.41399 16.2299 6.56832 17.4886C5.72266 18.7472 5.72266 20.3747 5.72266 23.6246V51.625M40.1393 46.7083V51.625M20.4727 46.7083V51.625" stroke="#C99146" stroke-width="3.5" stroke-linecap="round" stroke-linejoin="round"/>
<path d="M19.2422 34.4163L19.8396 32.0318C20.7319 28.4549 21.1794 26.6652 22.5142 25.6253C23.8466 24.583 25.6904 24.583 29.3779 24.583H31.2315C34.919 24.583 36.7627 24.583 38.0951 25.6253C39.43 26.6652 39.8774 28.4524 40.7698 32.0318L41.3672 34.4163M21.7005 40.5376V40.5622M38.9089 40.5376V40.5622M42.5964 34.4163H18.013C17.361 34.4163 16.7357 34.6753 16.2747 35.1364C15.8137 35.5974 15.5547 36.2227 15.5547 36.8747V44.2497C15.5547 44.9017 15.8137 45.527 16.2747 45.988C16.7357 46.449 17.361 46.708 18.013 46.708H42.5964C43.2483 46.708 43.8736 46.449 44.3347 45.988C44.7957 45.527 45.0547 44.9017 45.0547 44.2497V36.8747C45.0547 36.2227 44.7957 35.5974 44.3347 35.1364C43.8736 34.6753 43.2483 34.4163 42.5964 34.4163Z" stroke="#C99146" stroke-width="3.5" stroke-linecap="round" stroke-linejoin="round"/>
</svg>
