<svg width="95" height="28" viewBox="0 0 95 28" fill="none" xmlns="http://www.w3.org/2000/svg">
<path d="M94.1797 0.487793H-0.00102997L20.8316 13.6878L-0.00102997 27.4878H94.1797V0.487793Z" fill="#FFC700"/>
<path d="M29.1857 17.4878V8.76052H34.4187V9.69802H30.2425V12.6469H34.0266V13.5844H30.2425V17.4878H29.1857ZM38.3562 17.6242C37.7255 17.6242 37.1815 17.485 36.7241 17.2065C36.2695 16.9253 35.9187 16.5332 35.6715 16.0304C35.4272 15.5247 35.305 14.9367 35.305 14.2662C35.305 13.5957 35.4272 13.0048 35.6715 12.4935C35.9187 11.9793 36.2624 11.5787 36.7028 11.2918C37.146 11.002 37.663 10.8571 38.2539 10.8571C38.5948 10.8571 38.9315 10.9139 39.2638 11.0276C39.5962 11.1412 39.8988 11.3259 40.1715 11.5815C40.4442 11.8344 40.6616 12.1696 40.8235 12.5872C40.9854 13.0048 41.0664 13.519 41.0664 14.1298V14.556H36.021V13.6867H40.0437C40.0437 13.3173 39.9698 12.9878 39.8221 12.698C39.6772 12.4082 39.4698 12.1796 39.1999 12.0119C38.9329 11.8443 38.6175 11.7605 38.2539 11.7605C37.8533 11.7605 37.5067 11.86 37.2141 12.0588C36.9244 12.2548 36.7013 12.5105 36.5451 12.8259C36.3888 13.1412 36.3107 13.4793 36.3107 13.8401V14.4196C36.3107 14.9139 36.396 15.333 36.5664 15.6767C36.7397 16.0176 36.9798 16.2776 37.2866 16.4565C37.5934 16.6327 37.9499 16.7207 38.3562 16.7207C38.6204 16.7207 38.859 16.6838 39.0721 16.61C39.288 16.5332 39.4741 16.4196 39.6303 16.269C39.7866 16.1156 39.9073 15.9253 39.9925 15.698L40.9641 15.9707C40.8619 16.3003 40.69 16.5901 40.4485 16.8401C40.207 17.0872 39.9087 17.2804 39.5536 17.4196C39.1985 17.556 38.7994 17.6242 38.3562 17.6242ZM44.5224 17.6412C44.1076 17.6412 43.7312 17.5631 43.3931 17.4068C43.055 17.2477 42.7866 17.019 42.5877 16.7207C42.3888 16.4196 42.2894 16.056 42.2894 15.6298C42.2894 15.2548 42.3633 14.9509 42.511 14.7179C42.6587 14.4821 42.8562 14.2975 43.1033 14.1639C43.3505 14.0304 43.6232 13.931 43.9215 13.8656C44.2227 13.7975 44.5252 13.7435 44.8292 13.7037C45.2269 13.6526 45.5494 13.6142 45.7965 13.5886C46.0465 13.5602 46.2283 13.5134 46.342 13.448C46.4585 13.3827 46.5167 13.269 46.5167 13.1071V13.073C46.5167 12.6526 46.4016 12.3259 46.1715 12.0929C45.9442 11.86 45.5991 11.7435 45.136 11.7435C44.6559 11.7435 44.2795 11.8486 44.0067 12.0588C43.734 12.269 43.5423 12.4935 43.4315 12.7321L42.4769 12.3912C42.6474 11.9935 42.8746 11.6838 43.1587 11.4622C43.4457 11.2378 43.7582 11.0815 44.0962 10.9935C44.4371 10.9026 44.7724 10.8571 45.1019 10.8571C45.3121 10.8571 45.5536 10.8827 45.8263 10.9338C46.1019 10.9821 46.3675 11.083 46.6232 11.2364C46.8817 11.3898 47.0962 11.6213 47.2667 11.931C47.4371 12.2406 47.5224 12.6554 47.5224 13.1753V17.4878H46.5167V16.6014H46.4656C46.3974 16.7435 46.2837 16.8955 46.1246 17.0574C45.9656 17.2193 45.7539 17.3571 45.4897 17.4707C45.2255 17.5844 44.9031 17.6412 44.5224 17.6412ZM44.6758 16.7378C45.0735 16.7378 45.4087 16.6597 45.6815 16.5034C45.957 16.3472 46.1644 16.1455 46.3036 15.8983C46.4457 15.6511 46.5167 15.3912 46.5167 15.1185V14.198C46.4741 14.2492 46.3803 14.296 46.2354 14.3386C46.0934 14.3784 45.9286 14.4139 45.7411 14.4452C45.5565 14.4736 45.3761 14.4992 45.1999 14.5219C45.0266 14.5418 44.886 14.5588 44.7781 14.573C44.5167 14.6071 44.2724 14.6625 44.0451 14.7392C43.8207 14.8131 43.6388 14.9253 43.4996 15.0759C43.3633 15.2236 43.2951 15.4253 43.2951 15.681C43.2951 16.0304 43.4244 16.2946 43.6829 16.4736C43.9442 16.6497 44.2752 16.7378 44.6758 16.7378ZM52.2045 10.9423V11.7946H48.8125V10.9423H52.2045ZM49.8011 9.37416H50.8068V15.6128C50.8068 15.8969 50.848 16.11 50.9304 16.252C51.0156 16.3912 51.1236 16.485 51.2543 16.5332C51.3878 16.5787 51.5284 16.6014 51.6761 16.6014C51.7869 16.6014 51.8778 16.5957 51.9489 16.5844C52.0199 16.5702 52.0767 16.5588 52.1193 16.5503L52.3239 17.4537C52.2557 17.4793 52.1605 17.5048 52.0384 17.5304C51.9162 17.5588 51.7614 17.573 51.5739 17.573C51.2898 17.573 51.0114 17.5119 50.7386 17.3898C50.4688 17.2676 50.2443 17.0815 50.0653 16.8315C49.8892 16.5815 49.8011 16.2662 49.8011 15.8855V9.37416ZM57.8423 14.8117V10.9423H58.848V17.4878H57.8423V16.3798H57.7741C57.6207 16.7122 57.3821 16.9949 57.0582 17.2278C56.7344 17.458 56.3253 17.573 55.831 17.573C55.4219 17.573 55.0582 17.4835 54.7401 17.3046C54.4219 17.1227 54.1719 16.85 53.9901 16.4864C53.8082 16.1199 53.7173 15.6582 53.7173 15.1014V10.9423H54.723V15.0332C54.723 15.5105 54.8565 15.8912 55.1236 16.1753C55.3935 16.4594 55.7372 16.6014 56.1548 16.6014C56.4048 16.6014 56.6591 16.5375 56.9176 16.4097C57.179 16.2818 57.3977 16.0858 57.5739 15.8216C57.7528 15.5574 57.8423 15.2207 57.8423 14.8117ZM60.69 17.4878V10.9423H61.6616V11.931H61.7298C61.8491 11.6071 62.065 11.3443 62.3775 11.1426C62.69 10.9409 63.0423 10.8401 63.4343 10.8401C63.5082 10.8401 63.6005 10.8415 63.7113 10.8443C63.8221 10.8472 63.9059 10.8514 63.9627 10.8571V11.8798C63.9286 11.8713 63.8505 11.8585 63.7283 11.8415C63.609 11.8216 63.4826 11.8117 63.3491 11.8117C63.0309 11.8117 62.7468 11.8784 62.4968 12.0119C62.2496 12.1426 62.0536 12.3244 61.9087 12.5574C61.7667 12.7875 61.6957 13.0503 61.6957 13.3457V17.4878H60.69ZM67.6999 17.6242C67.0692 17.6242 66.5252 17.485 66.0678 17.2065C65.6133 16.9253 65.2624 16.5332 65.0153 16.0304C64.771 15.5247 64.6488 14.9367 64.6488 14.2662C64.6488 13.5957 64.771 13.0048 65.0153 12.4935C65.2624 11.9793 65.6062 11.5787 66.0465 11.2918C66.4897 11.002 67.0067 10.8571 67.5977 10.8571C67.9386 10.8571 68.2752 10.9139 68.6076 11.0276C68.94 11.1412 69.2425 11.3259 69.5153 11.5815C69.788 11.8344 70.0053 12.1696 70.1673 12.5872C70.3292 13.0048 70.4102 13.519 70.4102 14.1298V14.556H65.3647V13.6867H69.3874C69.3874 13.3173 69.3136 12.9878 69.1658 12.698C69.021 12.4082 68.8136 12.1796 68.5437 12.0119C68.2766 11.8443 67.9613 11.7605 67.5977 11.7605C67.1971 11.7605 66.8505 11.86 66.5579 12.0588C66.2681 12.2548 66.0451 12.5105 65.8888 12.8259C65.7326 13.1412 65.6545 13.4793 65.6545 13.8401V14.4196C65.6545 14.9139 65.7397 15.333 65.9102 15.6767C66.0835 16.0176 66.3235 16.2776 66.6303 16.4565C66.9371 16.6327 67.2937 16.7207 67.6999 16.7207C67.9641 16.7207 68.2028 16.6838 68.4158 16.61C68.6317 16.5332 68.8178 16.4196 68.9741 16.269C69.1303 16.1156 69.2511 15.9253 69.3363 15.698L70.3079 15.9707C70.2056 16.3003 70.0337 16.5901 69.7923 16.8401C69.5508 17.0872 69.2525 17.2804 68.8974 17.4196C68.5423 17.556 68.1431 17.6242 67.6999 17.6242ZM74.4116 17.6242C73.8661 17.6242 73.3846 17.4864 72.967 17.2108C72.5494 16.9324 72.2227 16.5403 71.9869 16.0347C71.7511 15.5261 71.6332 14.9253 71.6332 14.2321C71.6332 13.5446 71.7511 12.948 71.9869 12.4423C72.2227 11.9367 72.5508 11.546 72.9712 11.2705C73.3917 10.9949 73.8775 10.8571 74.4286 10.8571C74.8548 10.8571 75.1914 10.9281 75.4386 11.0702C75.6886 11.2094 75.8789 11.3685 76.0096 11.5475C76.1431 11.7236 76.2468 11.8685 76.3207 11.9821H76.4059V8.76052H77.4116V17.4878H76.44V16.4821H76.3207C76.2468 16.6014 76.1417 16.752 76.0053 16.9338C75.869 17.1128 75.6744 17.2733 75.4215 17.4153C75.1687 17.5546 74.832 17.6242 74.4116 17.6242ZM74.5479 16.7207C74.9513 16.7207 75.2923 16.6156 75.5707 16.4054C75.8491 16.1923 76.0607 15.8983 76.2056 15.5233C76.3505 15.1455 76.4229 14.7094 76.4229 14.2151C76.4229 13.7264 76.3519 13.2989 76.2099 12.9324C76.0678 12.5631 75.8576 12.2761 75.5792 12.0716C75.3008 11.8642 74.957 11.7605 74.5479 11.7605C74.1218 11.7605 73.7667 11.8699 73.4826 12.0886C73.2013 12.3046 72.9897 12.5986 72.8477 12.9707C72.7085 13.3401 72.6388 13.7548 72.6388 14.2151C72.6388 14.681 72.7099 15.1043 72.8519 15.485C72.9968 15.8628 73.2099 16.1639 73.4911 16.3884C73.7752 16.61 74.1275 16.7207 74.5479 16.7207Z" fill="black"/>
</svg>
