<svg width="12" height="14" viewBox="0 0 12 14" fill="none" xmlns="http://www.w3.org/2000/svg">
<path d="M11.6563 5.04227C11.6005 4.8346 11.4978 4.6495 11.3596 4.50747C11.2214 4.36543 11.0531 4.272 10.8733 4.23751L8.05239 3.68809L6.7447 0.642685C6.6614 0.44881 6.53515 0.286178 6.3798 0.172634C6.22446 0.0590907 6.04601 -0.000976563 5.86405 -0.000976562C5.68209 -0.000976563 5.50365 0.0590907 5.3483 0.172634C5.19295 0.286178 5.0667 0.44881 4.9834 0.642685L3.67571 3.68809L0.854842 4.23751C0.675248 4.27254 0.507177 4.36618 0.369068 4.50815C0.230959 4.65012 0.12815 4.83494 0.0719206 5.04233C0.0156913 5.24972 0.00821478 5.47166 0.0503115 5.68381C0.0924082 5.89596 0.182451 6.09011 0.310561 6.24496L2.32326 8.67653L1.88762 12.0615C1.85967 12.2771 1.88187 12.4977 1.95179 12.6992C2.0217 12.9006 2.13662 13.0751 2.28391 13.2033C2.4312 13.3316 2.60514 13.4086 2.78662 13.4261C2.96809 13.4435 3.15007 13.4006 3.31252 13.3022L5.86405 11.7595L8.41565 13.3022C8.57812 13.4004 8.76005 13.4432 8.94145 13.4256C9.12286 13.4081 9.29672 13.331 9.44396 13.2028C9.5912 13.0746 9.7061 12.9003 9.77607 12.6989C9.84603 12.4976 9.86834 12.277 9.84055 12.0615L9.40492 8.67653L11.4176 6.24496C11.5461 6.09041 11.6365 5.89625 11.6786 5.68399C11.7207 5.47172 11.713 5.24962 11.6563 5.04227Z" fill="#FFC700"/>
</svg>
