<svg width="60" height="59" viewBox="0 0 60 59" fill="none" xmlns="http://www.w3.org/2000/svg">
<path d="M8.23047 51.625H13.1471M13.1471 51.625H47.5638M13.1471 51.625V22.9313M52.4805 51.625H47.5638M47.5638 51.625V22.9313M13.1471 22.9313C13.0552 22.8785 12.965 22.8228 12.8767 22.7642L11.5492 21.8792C10.6108 21.2532 9.9161 20.3236 9.58174 19.2462C9.24739 18.1688 9.29368 17.0093 9.71284 15.962L11.9106 10.4651C12.2756 9.55285 12.9056 8.77088 13.7193 8.22008C14.533 7.66929 15.4931 7.37493 16.4757 7.375H44.2352C45.2178 7.37493 46.1779 7.66929 46.9916 8.22008C47.8053 8.77088 48.4353 9.55285 48.8003 10.4651L50.9981 15.962C51.4173 17.0093 51.4635 18.1688 51.1292 19.2462C50.7948 20.3236 50.1002 21.2532 49.1617 21.8792L47.8342 22.7642C47.7459 22.8228 47.6557 22.8785 47.5638 22.9313M13.1471 22.9313C13.9413 23.39 14.8479 23.6174 15.7645 23.5879C16.6812 23.5583 17.5712 23.273 18.3342 22.7642L22.9805 19.6667L27.6267 22.7642C28.4347 23.3032 29.3842 23.5909 30.3555 23.5909C31.3267 23.5909 32.2763 23.3032 33.0842 22.7642L37.7305 19.6667L42.3767 22.7642C43.1397 23.273 44.0298 23.5583 44.9464 23.5879C45.863 23.6174 46.7696 23.39 47.5638 22.9313" stroke="#C99146" stroke-width="3.5" stroke-linecap="round" stroke-linejoin="round"/>
<path d="M35.2708 51.6253V39.3337C35.2708 38.0297 34.7528 36.7791 33.8308 35.8571C32.9087 34.935 31.6581 34.417 30.3542 34.417C29.0502 34.417 27.7996 34.935 26.8776 35.8571C25.9555 36.7791 25.4375 38.0297 25.4375 39.3337V51.6253" stroke="#C99146" stroke-width="2.5"/>
</svg>
