<svg width="50" height="51" viewBox="0 0 50 51" fill="none" xmlns="http://www.w3.org/2000/svg">
<path d="M43.75 27.2264V33.4764C43.75 35.6865 42.872 37.8062 41.3092 39.369C39.7464 40.9318 37.6268 41.8097 35.4167 41.8097H14.5833C12.3732 41.8097 10.2536 40.9318 8.69078 39.369C7.12797 37.8062 6.25 35.6865 6.25 33.4764V28.4764C6.25 28.1449 6.3817 27.8269 6.61612 27.5925C6.85054 27.3581 7.16848 27.2264 7.5 27.2264H43.75ZM43.75 27.2264V14.7264C43.75 12.5163 42.872 10.3966 41.3092 8.83384C39.7464 7.27104 37.6268 6.39307 35.4167 6.39307H25M33.3333 41.8097L35.4167 45.9764M16.6667 41.8097L14.5833 45.9764" stroke="white" stroke-width="2" stroke-linecap="round" stroke-linejoin="round"/>
<path d="M32.0824 16.8097H17.9157C17.2261 16.8097 16.674 16.2514 16.749 15.5639C17.0532 12.7993 18.4636 6.39307 24.999 6.39307C31.5344 6.39307 32.9449 12.7993 33.249 15.5639C33.324 16.2514 32.7719 16.8097 32.0824 16.8097Z" stroke="white" stroke-width="2" stroke-linecap="round" stroke-linejoin="round"/>
</svg>
