<svg width="32" height="32" viewBox="0 0 32 32" fill="none" xmlns="http://www.w3.org/2000/svg">
<path d="M9.66927 8.05664C9.24934 8.05664 8.84662 8.22346 8.54969 8.52039C8.25275 8.81732 8.08594 9.22005 8.08594 9.63997C8.08594 10.0599 8.25275 10.4626 8.54969 10.7596C8.84662 11.0565 9.24934 11.2233 9.66927 11.2233H22.3359C22.7559 11.2233 23.1586 11.0565 23.4555 10.7596C23.7525 10.4626 23.9193 10.0599 23.9193 9.63997C23.9193 9.22005 23.7525 8.81732 23.4555 8.52039C23.1586 8.22346 22.7559 8.05664 22.3359 8.05664H9.66927ZM8.08594 16.0002C8.08594 15.5803 8.25275 15.1776 8.54969 14.8806C8.84662 14.5837 9.24934 14.4169 9.66927 14.4169H22.3359C22.7559 14.4169 23.1586 14.5837 23.4555 14.8806C23.7525 15.1776 23.9193 15.5803 23.9193 16.0002C23.9193 16.4202 23.7525 16.8229 23.4555 17.1198C23.1586 17.4167 22.7559 17.5836 22.3359 17.5836H9.66927C9.24934 17.5836 8.84662 17.4167 8.54969 17.1198C8.25275 16.8229 8.08594 16.4202 8.08594 16.0002ZM9.66927 20.7771C9.24934 20.7771 8.84662 20.944 8.54969 21.2409C8.25275 21.5378 8.08594 21.9405 8.08594 22.3605C8.08594 22.7804 8.25275 23.1831 8.54969 23.4801C8.84662 23.777 9.24934 23.9438 9.66927 23.9438H22.3359C22.7559 23.9438 23.1586 23.777 23.4555 23.4801C23.7525 23.1831 23.9193 22.7804 23.9193 22.3605C23.9193 21.9405 23.7525 21.5378 23.4555 21.2409C23.1586 20.944 22.7559 20.7771 22.3359 20.7771H9.66927Z" fill="#C99146"/>
<path fill-rule="evenodd" clip-rule="evenodd" d="M31.8346 16.0003C31.8346 24.7451 24.746 31.8337 16.0013 31.8337C7.25655 31.8337 0.167969 24.7451 0.167969 16.0003C0.167969 7.25558 7.25655 0.166992 16.0013 0.166992C24.746 0.166992 31.8346 7.25558 31.8346 16.0003ZM28.668 16.0003C28.668 19.3597 27.3334 22.5816 24.958 24.957C22.5825 27.3325 19.3607 28.667 16.0013 28.667C12.6419 28.667 9.42008 27.3325 7.04462 24.957C4.66916 22.5816 3.33464 19.3597 3.33464 16.0003C3.33464 12.6409 4.66916 9.4191 7.04462 7.04364C9.42008 4.66818 12.6419 3.33366 16.0013 3.33366C19.3607 3.33366 22.5825 4.66818 24.958 7.04364C27.3334 9.4191 28.668 12.6409 28.668 16.0003Z" fill="#C99146"/>
</svg>
