<svg width="28" height="28" viewBox="0 0 28 28" fill="none" xmlns="http://www.w3.org/2000/svg">
<path d="M14.821 22.804C14.6986 22.6821 14.6016 22.5372 14.5353 22.3777C14.4691 22.2181 14.435 22.0471 14.435 21.8743C14.435 21.7016 14.4691 21.5306 14.5353 21.371C14.6016 21.2115 14.6986 21.0666 14.821 20.9447L20.4527 15.3129L4.37459 15.3129C4.02649 15.3129 3.69266 15.1747 3.44651 14.9285C3.20037 14.6824 3.06209 14.3485 3.06209 14.0004C3.06209 13.6523 3.20037 13.3185 3.44651 13.0724C3.69266 12.8262 4.02649 12.6879 4.37459 12.6879H20.4527L14.821 7.05403C14.5744 6.80747 14.4359 6.47305 14.4359 6.12435C14.4359 5.77565 14.5744 5.44123 14.821 5.19466C15.0676 4.94809 15.402 4.80957 15.7507 4.80957C16.0994 4.80957 16.4338 4.94809 16.6804 5.19466L24.5554 13.0697C24.6777 13.1916 24.7748 13.3365 24.8411 13.496C24.9073 13.6556 24.9414 13.8266 24.9414 13.9993C24.9414 14.1721 24.9073 14.3431 24.8411 14.5027C24.7748 14.6622 24.6777 14.8071 24.5554 14.929L16.6804 22.804C16.5584 22.9264 16.4135 23.0235 16.254 23.0897C16.0945 23.156 15.9234 23.1901 15.7507 23.1901C15.5779 23.1901 15.4069 23.156 15.2474 23.0897C15.0878 23.0235 14.9429 22.9264 14.821 22.804Z" fill="white"/>
</svg>
